STARTFONT 2.1
COMMENT
COMMENT Converted from OpenType font "Font 90 Icons.ttf" by "otf2bdf 3.0".
COMMENT
FONT -FreeType-Font 90 Icons-Medium-R-Normal--58-420-100-100-P-213-ISO10646-1
SIZE 42 100 100
FONTBOUNDINGBOX 62 60 0 -12
STARTPROPERTIES 19
FOUNDRY "FreeType"
FAMILY_NAME "Font 90 Icons"
WEIGHT_NAME "Medium"
SLANT "R"
SETWIDTH_NAME "Normal"
ADD_STYLE_NAME ""
PIXEL_SIZE 58
POINT_SIZE 420
RESOLUTION_X 100
RESOLUTION_Y 100
SPACING "P"
AVERAGE_WIDTH 213
CHARSET_REGISTRY "ISO10646"
CHARSET_ENCODING "1"
FONT_ASCENT 48
FONT_DESCENT 11
COPYRIGHT "Typeface © (el-harrak.blogspot.com). <darrati10@gmail.com>. All Rights Reserved"
_OTF_FONTFILE "Font 90 Icons.ttf"
_OTF_PSNAME "Font 90 Icons"
ENDPROPERTIES
CHARS 242
STARTCHAR 0000
ENCODING 0
SWIDTH 0 0
DWIDTH 0 0
BBX 0 0 0 0
BITMAP
ENDCHAR
STARTCHAR 001D
ENCODING 29
SWIDTH 0 0
DWIDTH 0 0
BBX 0 0 0 0
BITMAP
ENDCHAR
STARTCHAR 0020
ENCODING 32
SWIDTH 240 0
DWIDTH 14 0
BBX 0 0 0 0
BITMAP
ENDCHAR
STARTCHAR 0021
ENCODING 33
SWIDTH 977 0
DWIDTH 57 0
BBX 56 55 0 -9
BITMAP
000007FFF00000
00003FFFFE0000
0000FFFF9F8000
0003FFFFE3E000
000FFFFFF8F000
001FFFFFFC3C00
003FFFFFFE0E00
007FFFFFFF0700
00FFFFFFFF0380
01FFFFFFFF81C0
03FFFFFFFF80E0
07FFFFC1FF8060
07FFFF81FF8030
0FFFFF80FF8038
1FFFFF80FF8018
1FFFFF80FF800C
1FFFFF81FF800C
3FFFFFC3FF8004
3FFFFFFFFF8006
7FFFFFFFFF0006
7FFFFFFFFF0006
7FFFFFFFFE0003
7FFFFFFFFE0003
7FFFFFFFFC0003
7FFFFFFFF80003
FFFFFFFFE00003
FFFFFFFF800003
FFFFFFF8000003
FFFFFE00000003
FFFFF800000003
7FFFF000000003
7FFFE000000003
7FFFC000000003
7FFF8000000003
7FFF8000000006
7FFF0000000006
3FFF0000000006
3FFF003C00000C
1FFE007E00000C
1FFE007F00001C
1FFE007F000018
0FFE007F000038
07FE007E000030
07FF003E000060
03FF00000000E0
01FF00000001C0
00FF8000000380
007F8000000700
003FC000000E00
001FE000003C00
000FF000007000
0003F80001E000
0000FE000F8000
00003FF7FE0000
000007FFF00000
ENDCHAR
STARTCHAR 0022
ENCODING 34
SWIDTH 977 0
DWIDTH 57 0
BBX 56 45 0 -4
BITMAP
000007FFF00000
00000FFFF80000
00001FFFF80000
00001C001C0000
00001C001C0000
00001C001C0000
00001C001C0000
00001C001C0000
1FFFFFFFFFFFFC
3FFFFFFFFFFFFE
7FFFFFFFFFFFFF
7FFFFFFFFFFFFF
7FFFFFFFFFFFFF
FFFFFFFFFFFFFF
FFFFFFFFFFFFFF
FFFFFFFFFFFFFF
FFFFFFFFFFFFFF
FFFFFFFFFFFFFF
FFFFFFFFFFFFFF
FFFFFFFFFFFFFF
FFFFFFFFFFFFFF
FFFFFFFFFFFFFF
FFFFFFFFFFFFFF
FFFFFFFFFFFFFF
FFFFFFFFFFFFFF
FFFFFFFFFFFFFF
FFFFFFFFFFFFFF
FFFFFFFFFFFFFF
FFFFFFFFFFFFFF
FFFFFFFFFFFFFF
FFFFFFFFFFFFFF
FFFFFFFFFFFFFF
FFFFFFFFFFFFFF
FFFFFFFFFFFFFF
FFFFFFFFFFFFFF
FFFFFFFFFFFFFF
FFFFFFFFFFFFFF
FFFFFFFFFFFFFF
FFFFFFFFFFFFFF
FFFFFFFFFFFFFF
7FFFFFFFFFFFFF
7FFFFFFFFFFFFF
7FFFFFFFFFFFFE
3FFFFFFFFFFFFE
0FFFFFFFFFFFF8
ENDCHAR
STARTCHAR 0023
ENCODING 35
SWIDTH 977 0
DWIDTH 57 0
BBX 53 59 2 -12
BITMAP
00007F80000000
0003FFF0000000
380FFFFE000000
FC3FFFFFC00000
FC7FFFFFF00000
FCFFFFFFFF0300
7EFFFFFFFFFF80
7EFFFFFFFFFF80
7E7FFFFFFFFF80
7E7FFFFFFFFF80
7E7FFFFFFFFF80
7E7FFFFFFFFF80
3F7FFFFFFFFFC0
3F3FFFFFFFFFC0
3F3FFFFFFFFFC0
3F3FFFFFFFFFC0
3F3FFFFFFFFFC0
1FBFFFFFFFFFC0
1F9FFFFFFFFFE0
1F9FFFFFFFFFE0
1F9FFFFFFFFFE0
1F9FFFFFFFFFE0
1F9FFFFFFFFFE0
0FDFFFFFFFFFE0
0FCFFFFFFFFFE0
0FCFFFFFFFFFF0
0FCFFFFFFFFFF0
0FCFFE01FFFFF0
0FEFF0003FFFF0
07E7C00007FFF0
07E7000001FFF0
07E60000007FF8
07E40000000FF8
07E000000001E0
03F00000000000
03F00000000000
03F00000000000
03F00000000000
03F00000000000
03F00000000000
01F80000000000
01F80000000000
01F80000000000
01F80000000000
01F80000000000
01FC0000000000
00FC0000000000
00FC0000000000
00FC0000000000
00FC0000000000
00FC0000000000
007E0000000000
007E0000000000
007E0000000000
007E0000000000
007E0000000000
007F0000000000
003F0000000000
003E0000000000
ENDCHAR
STARTCHAR 0024
ENCODING 36
SWIDTH 977 0
DWIDTH 57 0
BBX 56 55 0 -8
BITMAP
01FC0000000000
03FE0000000000
07FF0000000000
0FFF8000000000
1FFF8000000000
3FFFC000000000
7FFFE000000000
7FFFF000000000
FFFFF800000000
FFFFFE00000000
FFFFFF00000000
7FFFFF80000000
7FFFFFC0000000
3FFFFFE0000000
1FFFFFF8000000
0FFFFFFC000000
07FFFFFE000000
03FFFFFF000000
01FFFFFFC00000
00FFFFFFE00000
007FFFFFC00000
003FFFFF800000
001FFFFF000000
000FFFFE000000
000FFFFC000000
0007FFF8000000
0003FFF4000000
0003FFEC000000
0001FFDE000000
0000FF8F000000
00007F07800000
00003F03C00000
00001E01E00000
00001C00F00000
00000800380000
000000001C0000
000000000C0000
00000000060000
00000000030000
00000000018000
0000000000C000
00000000006000
00000000003000
00000000001800
00000000000C00
00000000000600
00000000000300
00000000000180
00000000000040
00000000000020
00000000000010
00000000000008
00000000000004
00000000000002
00000000000001
ENDCHAR
STARTCHAR 0025
ENCODING 37
SWIDTH 977 0
DWIDTH 57 0
BBX 53 59 2 -11
BITMAP
000000F8000000
000003FC000000
000003FE000000
000003FE000000
000007FE000000
000007FE000000
00001FFFC00000
00007FFFF00000
0001FFFFFC0000
0007FFFFFF0000
000FFFFFFF8000
003FFFFFFFC000
087FFFFFFFE3C0
7FFFF9FCFFFFE0
7FFFE1F83FFFF0
FFFF81F80FFFF0
FFFF01F807FFF8
FFFE00F803FFF8
FFFC00F003FFF0
7FFE00F007FFF0
7FFF00F00FFFE0
1FFF80701FFFC0
1FFFC0703FFFC0
1FFFE0707FFFC0
1FFFF0F0FFFFC0
1FC7FFFFFE1FC0
3FC07FFFE01FC0
3FC00FFF801FE0
3F8007FF001FE0
3F8007FF001FE0
3F8007FF001FE0
3FC00FFF801FE0
3FC03FFFE01FC0
1FC3FFFFFE1FC0
1FDFF8F0FFFFC0
1FFFF0707FFFC0
1FFFE0703FFFC0
1FFFC0701FFFC0
3FFF00F00FFFE0
7FFE00F807FFF0
FFFC00F803FFF8
FFFC00F803FFF8
FFFE01F807FFF8
FFFF81FC0FFFF8
7FFFC1FC1FFFF0
7FFFF1FCFFFFE0
1C7FFFFFFFF3C0
003FFFFFFFE000
001FFFFFFF8000
0007FFFFFF0000
0003FFFFFE0000
0000FFFFF80000
00001FFFC00000
000003FE000000
000003FE000000
000003FE000000
000003FE000000
000001FC000000
000000F8000000
ENDCHAR
STARTCHAR 0026
ENCODING 38
SWIDTH 977 0
DWIDTH 57 0
BBX 56 55 0 -9
BITMAP
000007FFE00000
00003FFFFC0000
0000FFFFFF8000
0003FE003FE000
000FF00007F000
001F800001F800
003F0000007E00
007C01FF801F00
00F80FFFF00F80
01F03FFFFC07C0
03E07FFFFF03C0
07C1FFFFFF81E0
0783FFFFFFC0F0
0F07FFFFFFE070
0E0FFFFFFFF078
1E0FFFFFFFF838
1C1FFFFFFFFC3C
3C3F9FFFFFFC1C
383F8FFFFFFE1E
387FC7FFFBFE0E
787FE3FFF3FF0E
707FF1FFE7FF0F
70FFF8FFCFFF0F
70FFFC7F9FFF07
70FFFE3F3FFF87
F0FFFF1E7FFF87
F0FFFF94FFFF87
F0FFFFC1FFFF87
F0FFFFC1FFFF87
F0FFFFC1FFFF87
70FFFFE3FFFF87
70FFFFFFFFFF07
70FFFFFFFFFF0F
707FFFFFFFFF0F
787FFFFFFFFF0E
387FFFFFFFFE0E
383FFFFFFFFE1E
3C3FFFFFFFFC1C
1C1FFFFFFFFC3C
1E0FFFFFFFF838
0E0FFFFFFFF078
0F07FFFFFFE0F0
0783FFFFFFC0F0
07C1FFFFFF81E0
03E07FFFFF03C0
01F03FFFFC07C0
00F80FFFF00F80
007C00FF801F00
003F0000007E00
001F800001F800
0007F00007F000
0003FE007FC000
0000FFFFFF8000
00003FFFFC0000
000007FFE00000
ENDCHAR
STARTCHAR 0027
ENCODING 39
SWIDTH 977 0
DWIDTH 57 0
BBX 55 57 1 -10
BITMAP
00000C00000000
0001FFF0000000
000FFFFC000000
003FFFFF000000
007FFFFFC00000
01FFFFFFE00000
03FFFFFFF00000
07FFFFFFF80000
0FFFFFFFFC0000
0FFF807FFE0000
1FFE000FFF0000
3FF80007FF0000
3FF01E03FF8000
7FE01F01FF8000
7FC03F00FFC000
7FC03F007FC000
FF803F007FC000
FF803F003FE000
FF003F003FE000
FF07FFFC3FE000
FF1FFFFE1FE000
FF1FFFFE1FE000
FF1FFFFE1FE000
FF1FFFFE1FE000
FF0FFFFC3FE000
FF003F003FE000
FF803F003FE000
FF803F003FC000
FF803F007FC000
7FC03F00FFC000
7FE01F00FF8000
3FF01E01FF8000
3FF80003FF0000
1FFC000FFF8000
1FFF001FFFC000
0FFFF3FFFFE000
07FFFFFFFFF000
03FFFFFFFFF800
01FFFFFFFFFC00
00FFFFFFFFFE00
007FFFFFFFFF00
001FFFFFFFFF80
0007FFF9FFFFC0
00007FC0FFFFE0
000000007FFFF0
000000003FFFF8
000000001FFFFC
000000000FFFFC
0000000007FFFE
0000000003FFFE
0000000001FFFE
0000000000FFFE
00000000007FFE
00000000003FFC
00000000001FF8
00000000000FF0
000000000003E0
ENDCHAR
STARTCHAR 0028
ENCODING 40
SWIDTH 977 0
DWIDTH 57 0
BBX 56 57 0 -10
BITMAP
00003FE0000000
0001FFFC000000
000FFFFF000000
001FFFFFC00000
007FFFFFE00000
00FFFFFFF80000
01FFFFFFFC0000
03FFFFFFFE0000
07FFFFFFFE0000
0FFF801FFF0000
0FFE0007FF8000
1FFC0001FF8000
1FF80000FFC000
3FF000007FC000
3FE000007FE000
7FE000003FE000
7FC000001FE000
7FC000001FF000
7F8000001FF000
7F87FFFE1FF000
FF8FFFFF0FF000
FF8FFFFF0FF000
FF8FFFFF0FF000
FF8FFFFF0FF000
7F83FFFC1FF000
7F8000001FF000
7FC000001FF000
7FC000003FE000
7FE000003FE000
3FE000007FE000
3FF000007FC000
1FF80000FFC000
1FFC0001FF8000
0FFE0007FFC000
0FFFC01FFFE000
07FFFFFFFFF000
03FFFFFFFFF800
01FFFFFFFFFC00
00FFFFFFFFFE00
007FFFFFFFFF00
001FFFFFFFFF80
0007FFFFFFFFC0
0001FFFCFFFFE0
00003FC07FFFF0
000000003FFFF8
000000001FFFFC
000000000FFFFE
0000000007FFFF
0000000003FFFF
0000000001FFFF
0000000000FFFF
00000000007FFF
00000000003FFF
00000000001FFE
00000000000FFC
000000000007F8
000000000001E0
ENDCHAR
STARTCHAR 0029
ENCODING 41
SWIDTH 977 0
DWIDTH 57 0
BBX 55 42 1 -3
BITMAP
7FFFFFFFFFFFFC
FFFFFFFFFFFFFE
FFFFFFFFFFFFFE
FC00000000007E
FE0000000000FE
FF0000000001FE
FF8000000003FE
EFC000000007EE
E7E00000000FCE
E3F00000001F8E
E1F80000003F0E
E0FC0000007E0E
E07E000000FC0E
E03F000001F80E
E01F800003F00E
E00FC00007E00E
E007E0000FC00E
E003F0001F800E
E001F8003F000E
E000FC007E000E
E0007E00FC000E
E0007F01FC000E
E000FF83FE000E
E001FFC7FF000E
E003E7FFCF800E
E007C3FF87C00E
E00F81FF03E00E
E01F007C01F00E
E03E000000F80E
E07C0000007C0E
E0F80000003E0E
E1F00000001F0E
E3E00000000F8E
E7C000000007CE
EF8000000003EE
FF0000000001FE
FE0000000000FE
FC00000000007E
FFFFFFFFFFFFFE
FFFFFFFFFFFFFE
FFFFFFFFFFFFFE
3FFFFFFFFFFFF8
ENDCHAR
STARTCHAR 002A
ENCODING 42
SWIDTH 977 0
DWIDTH 57 0
BBX 49 59 4 -11
BITMAP
000007E0000000
00000FF0000000
00000FF0000000
00000FF0000000
00000FF0000000
00000FF0000000
00000FF0000000
00000FF0000000
00000FF0000000
00000FF0000000
00000FF0000000
00000FF0000000
00000FF0000000
00000FF0000000
00000FF0000000
007C0FF03C0000
007F0FF0FE0000
007FCFF3FE0000
007FFFFFFE0000
003FFFFFFC0000
001FFFFFF80000
000FFFFFF00000
0007FFFFE00000
0003FFFFC00000
3FF9FFFFBFFE00
3FFCFFFF7FFC00
1FFE7FFEFFF800
CFFF3FFDFFF380
E7FF9FFBFFE780
F3FFCFF7FFCF80
F9FFE7EFFF9F80
FCFFF3DFFF3F80
FE7FF83FFE7F80
FF3FFFFFFCFF80
FF9FFFFFF9FF80
FFCFFFFFF3FF80
FFE7FFFFE7FF80
FFF3FFFFCFFF80
FFFDFFFF9FFF80
FFFEFFFF3FFF80
FFFF7FFE7FFF80
FFFF3FFC7FFF80
FFFF1FF87FFF80
FFFECFF93FFF80
FFFDE7E39FFF80
FFFBF1C7CFFF80
FFF7F81FE7FF80
FFEFFFFFF3FF80
FFDFFFFFF9FF80
FFBFFFFFFCFF80
FF7FFFFFFE7F80
FEFFFFFFFF3F80
FDFFFFFFFF9F80
FBFFFFFFFFCF80
F7FFFFFFFFE780
EFFFFFFFFFF380
DFFFFFFFFFF980
3FFFFFFFFFFC00
3FFFFFFFFFFE00
ENDCHAR
STARTCHAR 002B
ENCODING 43
SWIDTH 977 0
DWIDTH 57 0
BBX 55 55 1 -9
BITMAP
FFFFFFFFFFFFFE
FFFFFFFFFFFFFE
FFFFFFFFFFFFFE
FFFFFFFFFFFFFE
FFFFFFFFFFFFFE
FFFFFFFFFFFFFE
FFFFFFFFFFFFFE
FC003FFFF8007E
FC003FFFF8007E
FC007FFFFC007E
FC00FFFFFE007E
FC01FFFFFF007E
FC00FFFFFC007E
FC007FFFF8007E
FC003FFFF0007E
FC001FFFE0007E
FC201FFFE0087E
FC703FFFF01C7E
FCF87FFFF83EFE
FDFCFFFFFC7FFE
FFFFFFFFFEFFFE
FFFFFFFFFFFFFE
FFFFFFFFFFFFFE
FFFFFFFFFFFFFE
FFFFFFFFFFFFFE
FFFFFFFFFFFFFE
FFFFFFFFFFFFFE
FFFFFFFFFFFFFE
FFFFFFFFFFFFFE
FFFFFFFFFFFFFE
FFFFFFFFFFFFFE
FFFFFFFFFFFFFE
FFFFFFFFFFFFFE
FFFFFFFFFFFFFE
FFFFFFFFFEFFFE
FDFCFFFFFC7FFE
FCF87FFFF83EFE
FC703FFFF01C7E
FC201FFFE0087E
FC001FFFE0007E
FC003FFFF0007E
FC007FFFF8007E
FC00FFFFFC007E
FC01FFFFFF007E
FC00FFFFFE007E
FC007FFFFC007E
FC003FFFF8007E
FC007FFFF8007E
FFFFFFFFFFFFFE
FFFFFFFFFFFFFE
FFFFFFFFFFFFFE
FFFFFFFFFFFFFE
FFFFFFFFFFFFFE
FFFFFFFFFFFFFE
FFFFFFFFFFFFFE
ENDCHAR
STARTCHAR 002C
ENCODING 44
SWIDTH 977 0
DWIDTH 57 0
BBX 56 55 0 -9
BITMAP
00000000003E00
000000000FFF00
00000000FFFF80
00000001FFFFC0
00000003FFFFE0
00000007FFFFF0
0000000FFFFFF8
0000001FFFFFFC
0000003FFFF3FE
0000007FFFE1FF
000000FFFFC0FF
000001FFFFC0FF
000003FFFFE1FF
000007FFFFF3FE
00000FFFFFFFFE
00001FFFFFFFFE
00003FFFFFFFFE
00007FFFFFFFFE
0000FFFFFFFFFE
0001FFFFFFFFFC
0003FFFFFFFFFC
0007FFFFFFFFFC
000FFFFFFFFFFC
001FBFFFFFFFFC
003F1FFFFFFFF8
007F0FFFFFFFF0
00FF87FFFFFFE0
01FFC3FFFFFFC0
03F3E1FFFFFF80
07E1F0FFFFFF00
0FF0F87FFFFE00
1FF87C3FFFFC00
3FFC3E1FFFF800
FFFE1F0FFFF000
7FFF0F87FFE000
3FFF87C3FFC000
1FFFC3E1FF8000
0FFFE1F0FF0000
07FFF0F87E0000
03FFF87CFC0000
01FFFC3FF80000
00FFFE1FF00000
007FFF0FE00000
003FFF8FC00000
001FFFDF800000
000FFFFF000000
0007FFFE000000
0003FFFC000000
0001FFF8000000
0000FFF0000000
00007FE0000000
00003FC0000000
00001F80000000
00000F00000000
00000600000000
ENDCHAR
STARTCHAR 002D
ENCODING 45
SWIDTH 977 0
DWIDTH 57 0
BBX 56 55 0 -9
BITMAP
000007FFE00000
00003FFFFC0000
0000FFFFFF8000
0003FF80FFC000
0007F8000FF000
001FC00001F800
003F000000FE00
007E0000003F00
00F80000001F80
01F000000007C0
03F800000403C0
07FC00000E01E0
079E00001E01F0
0F0F00003E00F0
0F0780007E0078
1E03C000FE0078
1E01E001FE003C
3C00F001FE003C
3C007803FE001E
38000407FE001E
78001FFFFE000E
78003FFFFE000F
70003FFFFE000F
70003FFFFE000F
70003FFFFE000F
F0003FFFFE000F
F0003FFFFE0007
F0003FFFFE0007
F0003FFFFE0007
F0003FFFFE000F
70003FFFFE000F
70003FFFFE000F
78003FFFFE000F
78003FFFFE000F
7800000FFE000E
38000007FE001E
3C000003FE001E
3C000001FE003C
1E000001FE803C
1E000000FE4078
0F0000007E6078
0F0000003E70F0
078000001E79F0
07C000000E3DE0
03E00000041FC0
01F00000000FC0
00F80000001F80
007C0000003F00
003F0000007E00
001FC00001FC00
000FF0000FF000
0003FF00FFE000
0000FFFFFF8000
00003FFFFC0000
000007FFE00000
ENDCHAR
STARTCHAR 002E
ENCODING 46
SWIDTH 977 0
DWIDTH 57 0
BBX 48 59 5 -11
BITMAP
1FFFFFFFFFF8
1FFFFFFFFFF8
1C0000000038
1C0000000018
1C0000000018
1C0000000018
1C0000000018
1C0000000018
1C0000000018
1C0000000018
1C0000000018
1C0000000018
1C0000000018
1C0000000018
1C0000000018
1C0000000018
1C0000000018
1C0000000018
1C0000000018
1C0000000018
1C0000000018
1C0000000018
1C0000000018
1C0000000018
1C0000000018
1C0000000018
1C0000000018
1C0000000018
1FFFFFFFFFF8
1FFFFFFFFFF8
07FFFFFFFFF0
000000000000
000000000000
0FFFFFFFFFF8
1FFFFFFFFFF8
1FFFFFFFFFF8
1FFFFFFFFFF8
1FFFFFFC00F8
1FFFFFFC00F8
1FFFFFFFFFF8
1FFFFFFFFFF8
1FFFFFFFFFF8
1FFFFFFFFFF8
1FFFFFFFFFF8
0FFFFFFFFFF8
000001C00000
000001C00000
000001C00000
000001C00000
000001C00000
000001C00000
000001C00000
0001FFFF8000
0001FFFF8000
0001FFFF8000
FFFFFFFFFFFF
FFFFFFFFFFFF
FFFFFFFFFFFF
0001FFFF8000
ENDCHAR
STARTCHAR 002F
ENCODING 47
SWIDTH 977 0
DWIDTH 57 0
BBX 56 57 0 -10
BITMAP
0100007F000040
038001FFC001C0
03C007FFE001E0
03C00FFFF003C0
01E00FFFF803C0
01E01FFFFC0780
00F01FFFFC0780
00F03FFFFC0780
70F03FFFFE0F07
70F83FFFFE0F0F
78783FFFFE0F0F
78783FFFFE1F0E
787C3FFFFE1E1E
3C7C3FFFFE1E1E
3C3C3FFFFE1E1E
3C3C3FFFFE3E3E
3C3C3FFFFE3E3C
3E3E3FFFFE3E3C
3E3E3FFFFE3C3C
3E3E3FFFFE3C3C
1E3E3FFFFE3C3C
1E3E3FFFFE3C3C
1E3E3FFFFE3C3C
1E3E3FFFFE3C3C
1E3E3FFFFE3C3C
1E3E3FFFFE3C3C
1E3E3FFFFE3C3C
3E3E3FFFFE3C3C
3E3E3FFFFE3C3C
3C3E3FFFFE3E3C
3C3C3FFFFE3E3C
3C3C3FFFFE3E1E
3C3C3FFFFE1E1E
3C7C3FFFFE1E1E
787C3FFFFE1E1E
78783FFFFE1F0F
78783FFFFC0F0F
70F81FFFFC0F0F
F0F01FFFFC0F07
60F00FFFF80783
00F007FFF00780
01E003FFE00780
01E001FFC003C0
03C001FFC003C0
03C001FFC001E0
038001FFC000C0
000001FFC00000
000001FFC00000
000001FFC00000
000001FFC00000
000001FFC00000
000001FFC00000
000001FFC00000
000001FFC00000
000001FF800000
000001FF800000
000000FF000000
ENDCHAR
STARTCHAR 0030
ENCODING 48
SWIDTH 977 0
DWIDTH 57 0
BBX 56 56 0 -10
BITMAP
000007FFE00000
00003FFFFC0000
0000FFFFFF8000
0003FFFFFFC000
0007FFFFFFF000
001FFFFFFFF800
003FFFFFFFFE00
007FFFFFFFFF00
00FFFFFFFFFF80
01FFBFFFFEFFC0
03FE3FFFFC7FC0
07FC1FFFF83FE0
07F80FFFF80FF0
0FF00FFFF00FF0
0FE007FFF007F8
1FE007FFE003FC
1FC003FFE001FC
3F8003FFC001FC
3F8001FF8000FE
3F0000FF8000FE
7F0000FF00007E
7F0000FF80007F
7E0001FFC0007F
7E0003FFE0007F
7E0007C1E0007F
7E000780E0003F
FE000700F0003F
FFFFFF00FFFFFF
FFFFFF00FFFFFF
FFFFFF80FFFFFF
7FFFFF81FFFFFF
7FFFFFE3FFFFFF
7FFFFFFFFFFFFF
7FFFFFFFFFFFFF
7FFFFF7EFFFFFE
7FFFFF007FFFFE
3FFFFE007FFFFE
3FFFFC003FFFFC
1FFFFC003FFFFC
1FFFF8001FFFFC
1FFFF8000FFFF8
0FFFF0000FFFF8
07FFF00007FFF0
07FFE00007FFE0
03FFC00003FFE0
01FFC00003FFC0
00FFC00003FF80
007FF0000FFF00
003FFF007FFE00
001FFFFFFFFC00
000FFFFFFFF000
0003FFFFFFE000
0000FFFFFF8000
00003FFFFE0000
000007FFF00000
0000001C000000
ENDCHAR
STARTCHAR 0031
ENCODING 49
SWIDTH 977 0
DWIDTH 57 0
BBX 54 59 1 -11
BITMAP
000003FF800000
000007FF800000
000007FF800000
000007FF800000
000007FF800000
000007FF800000
000007FF800000
0000C7FF860000
0003C7FF878000
000FC7FF87C000
001FC7FF87F000
003FC7FF87F800
00FFC7FF87FC00
00FFC7FF87FE00
01FFC7FF87FF00
03FFC7FF87FF80
07FF07FF83FF80
0FFE07FF81FFC0
0FFC07FF807FE0
1FF807FF807FE0
1FF007FF803FF0
3FE007FF801FF0
3FE007FF800FF8
3FC007FF800FF8
7FC007FF8007F8
7F8007FF8007FC
7F8007FF8007FC
FF8007FF8003FC
FF8007FF8003FC
FF0007FF8003FC
FF0007FF8003FC
FF0007FF8003FC
FF0003FF8003FC
FF0000000003FC
FF0000000003FC
FF0000000003FC
FF8000000003FC
7F8000000003FC
7F8000000007FC
7FC000000007F8
7FC00000000FF8
3FE00000000FF8
3FE00000001FF0
1FF00000001FF0
1FF80000003FE0
0FFC0000007FE0
0FFE000000FFC0
07FF000001FFC0
03FF800007FF80
03FFE0001FFF00
01FFFC007FFE00
00FFFFFFFFFC00
007FFFFFFFF800
003FFFFFFFF000
000FFFFFFFE000
0007FFFFFF8000
0001FFFFFE0000
00007FFFF80000
00000FFFC00000
ENDCHAR
STARTCHAR 0032
ENCODING 50
SWIDTH 977 0
DWIDTH 57 0
BBX 53 59 2 -11
BITMAP
000000F8000000
000003FC000000
000003FE000000
000007FE000000
000007FE000000
000007FE000000
000007FE000000
000007FE000000
000003FE000000
000003FE000000
000003FC000000
000003FC000000
080003FC0003C0
7F0001FC000FE0
7FC001F8001FF0
FFE001F8007FF0
FFF001F800FFF8
FFF800F801FFF8
FFFC00F003FFF0
FFFE00F007FFF0
7FFF00F00FFFE0
1FFF80701FFFC0
0FFFC0703FFF00
01FFE0707FFC00
007FF0F0FFC000
0007FFFFFE0000
00007FFFE00000
00000FFF800000
000007FF000000
000007FF000000
000007FF000000
00000FFF800000
00003FFFE00000
0003FFFFFE0000
001FF8F0FFE000
00FFF0F07FFC00
07FFE0703FFF00
1FFF80F01FFFC0
3FFF00F00FFFE0
7FFE00F807FFF0
FFFC00F803FFF8
FFF800F801FFF8
FFF001F800FFF8
FFE001F8007FF8
FFC001FC001FF0
7F0001FC000FF0
1C0003FC0003C0
000003FC000000
000003FE000000
000003FE000000
000003FE000000
000007FE000000
000007FE000000
000007FE000000
000003FE000000
000003FE000000
000003FE000000
000001FC000000
000001F8000000
ENDCHAR
STARTCHAR 0033
ENCODING 51
SWIDTH 977 0
DWIDTH 57 0
BBX 55 53 1 -8
BITMAP
00000010000000
00000010000000
00000030000000
00000038000000
00000078000000
0000007C000000
000000FC000000
000000FE000000
000001FE000000
000001FF000000
000003FF000000
000003FF800000
000007FF800000
000007FFC00000
00000FFFC00000
00000FFFE00000
00001FFFE00000
00001FFFF00000
000FFFFFFFE000
07FFFFFFFFFFC0
FFFFFFFFFFFFFE
7FFFFFFFFFFFFC
3FFFFFFFFFFFF8
1FFFFFFFFFFFF0
0FFFFFFFFFFFE0
07FFFFFFFFFFC0
03FFFFFFFFFF80
01FFFFFFFFFF00
00FFFFFFFFFE00
007FFFFFFFFC00
003FFFFFFFF800
001FFFFFFFF000
000FFFFFFFE000
0007FFFFFFC000
0007FFFFFF8000
0007FFFFFF8000
0007FFFFFFC000
0007FFFFFFC000
0007FFFFFFC000
000FFFFFFFC000
000FFFFFFFC000
000FFFFFFFE000
000FFFFFFFE000
000FFFFFFFE000
000FFFCFFFE000
001FFF03FFE000
001FFC00FFE000
001FF8003FF000
001FE0000FF000
001F800003F000
001E000000F000
00380000003000
00200000001000
ENDCHAR
STARTCHAR 0034
ENCODING 52
SWIDTH 977 0
DWIDTH 57 0
BBX 56 41 0 -2
BITMAP
0FFFFFFFFFFFF8
1FFFFFFFFFFFFC
1FFFFFFFFFFFF8
0FFFFFFFFFFFF0
67FFFFFFFFFFE7
F3FFFFFFFFFFCF
F9FFFFFFFFFF9F
FCFFFFFFFFFF3F
FE7FFFFFFFFE7F
FF3FFFFFFFFCFF
FF9FFFFFFFF9FF
FFCFFFFFFFF3FF
FFE7FFFFFFE7FF
FFF3FFFFFFCFFF
FFF9FFFFFF9FFF
FFFCFFFFFF3FFF
FFFE7FFFFE7FFF
FFFF3FFFFCFFFF
FFFF9FFFF9FFFF
FFFFCFFFF3FFFF
FFFFE7FFE3FFFF
FFFFE3FFC3FFFF
FFFFC9FF89FFFF
FFFFBCFF1CFFFF
FFFF7E7E3E7FFF
FFFEFF187F3FFF
FFFDFF81FF9FFF
FFFBFFFFFFCFFF
FFF7FFFFFFE7FF
FFEFFFFFFFF3FF
FFDFFFFFFFF9FF
FFBFFFFFFFFCFF
FF7FFFFFFFFE7F
FEFFFFFFFFFF3F
FDFFFFFFFFFF9F
FBFFFFFFFFFFDF
F7FFFFFFFFFFEF
6FFFFFFFFFFFF7
0FFFFFFFFFFFF8
1FFFFFFFFFFFF8
0FFFFFFFFFFFF8
ENDCHAR
STARTCHAR 0035
ENCODING 53
SWIDTH 977 0
DWIDTH 57 0
BBX 56 44 0 -5
BITMAP
00000018000000
0000003C07F800
000000FF07F800
000001E787F800
000003C1E7F800
00000F08F7F800
00001E3C3FF800
0000787E1FF800
0000F1FF87F800
0003C3FFC3F800
00078FFFF0F800
001E1FFFF87800
003C3FFFFE3C00
00F0FFFFFF0F00
01E1FFFFFFC780
07C7FFFFFFE1E0
0F0FFFFFFFF0F0
1E3FFFFFFFFC3C
787FFFFFFFFE1E
F07FFFFFFFFE07
407FFFFFFFFE02
007FFFFFFFFE00
007FFFFFFFFE00
007FFFFFFFFE00
007FFFFFFFFE00
007FFF007FFE00
007FFF007FFE00
007FFF007FFE00
007FFF007FFE00
007FFF007FFE00
007FFF007FFE00
007FFF007FFE00
007FFF007FFE00
007FFF007FFE00
007FFF007FFE00
007FFF007FFE00
007FFF007FFE00
007FFF007FFE00
007FFF007FFE00
007FFF007FFE00
007FFF007FFE00
007FFF007FFE00
007FFF007FFE00
003FFF007FFC00
ENDCHAR
STARTCHAR 0036
ENCODING 54
SWIDTH 977 0
DWIDTH 57 0
BBX 55 59 1 -11
BITMAP
0020000000E000
00FC000003F800
01FE000007FC00
01FE000007FC00
03FF000007FC00
03FF000007FC00
03FF000007FC00
01FE000007FC00
01FC000003F800
0078000001E000
00000000000000
0FFFC0001FFF00
3FFFF0003FFF80
7FFFF8007FFFC0
FFFFFC00FFFFE0
FFFFFC00FFFFE0
FFFFFC00FFFFE0
FFFFFC01FFFFF0
FFFFFC01EFFEF0
F7FFBC01EFFEF0
F7FFBC03EFFEF0
F7FFBC03DFFEF8
F7FFBC03DFFF78
F7FFBC03DFFF78
F7FFBC07DFFF7C
F7FFBC07BFFFBC
F7FFBC07BFFFBC
F7FFBC0FBFFFBC
F7FFBC0F7FFFBE
F7FFBC0F7FFFDE
F7FFBC0F7FFFDE
F7FFBC0E7FFFCC
F7FFBC00FFFFE0
E7FF9C00FFFFE0
07CF8000FFFFE0
07CF8001FFFFE0
07CF8001FFFFF0
07CF8001FFFFF0
07CF8001FFFFF0
07CF8003FFFFF8
07CF80000FBE00
07CF80000FBE00
07CF80000FBE00
07CF80000FBE00
07CF80000FBE00
07CF80000FBE00
07CF80000FBE00
07CF80000FBE00
07CF80000FBE00
07CF80000FBE00
07CF80000FBE00
07CF80000FBE00
07CF80000FBE00
07CF80000FBE00
07CF80000FBE00
07CF80000FBE00
07CF80000FBE00
07CF80000FBE00
03870000071C00
ENDCHAR
STARTCHAR 0037
ENCODING 55
SWIDTH 977 0
DWIDTH 57 0
BBX 56 43 0 -3
BITMAP
00003F80000000
0003FFF8000000
000FFFFE000000
003FF9FF800000
007FC07FE00000
00FF803FF00000
01FF001FF80000
03FF000FFC0000
07FF000FFE0000
0FFF000FFE0000
0FFF000FFF0000
1FFF000FFF8000
3FFF001FFF8000
3FFF803FFFC000
3FFFC07FFFC000
7F0FF9FE0FC000
7C03FFFC03E000
7801FFF803E000
7800FFF001E000
7000FFF001E000
7000FFE000E000
F000FFE000E000
F000FFF000E000
7000FFF001E000
7801FFF001E000
7C01FFF803E000
7E07FFFC07E000
7FFFE07FFFC000
3FFFC03FFFC000
3FFF801FFFC000
3FFF000FFF8000
1FFF000FFF8000
1FFF000FFF0000
0FFF000FFF0000
07FF000FFE0000
03FF001FFF0006
01FF801FFF001F
00FFC03FFF80FF
007FE0FFE7EFFE
003FFFFF83FFF8
000FFFFF01FFE0
0003FFFC00FF00
00003FC0000000
ENDCHAR
STARTCHAR 0038
ENCODING 56
SWIDTH 977 0
DWIDTH 57 0
BBX 43 59 7 -11
BITMAP
7FFFFFFFFFC0
FFFFFFFFFFE0
FFFFFFFFFFE0
FFFFFFFFFFE0
FFFFFFFFFFE0
F000000001E0
F000000001E0
F000000001E0
F000000001E0
F000000001E0
F000000001E0
F000000001E0
F000000001E0
F000000001E0
F000000001E0
F800000003E0
FFFFFFFFFFE0
FFFFFFFFFFE0
FFFFFFFFFFE0
FFFFFFFFFFE0
FFFFFFFFFFE0
F00FC07E03E0
F00FC07E03E0
F00FC07E03E0
F00FC07E03E0
F00FC07E03E0
F00FC07E03E0
F00FC07E03E0
FFFFFFFFFFE0
FFFFFFFFFFE0
FFFFFFFFFFE0
FFFFFFFFFFE0
FFFFFFFFFFE0
F80FC07E03E0
F00FC07E03E0
F00FC07E03E0
F00FC07E03E0
F00FC07E03E0
F00FC07E03E0
F00FC07E03E0
F80FC07E03E0
FFFFFFFFFFE0
FFFFFFFFFFE0
FFFFFFFFFFE0
FFFFFFFFFFE0
FFFFFFFFFFE0
F80FC07E03E0
F00FC07E03E0
F00FC07E03E0
F00FC07E03E0
F00FC07E03E0
F00FC07E03E0
F00FC07E03E0
F81FC0FF03E0
FFFFFFFFFFE0
FFFFFFFFFFE0
FFFFFFFFFFE0
FFFFFFFFFFE0
7FFFFFFFFFC0
ENDCHAR
STARTCHAR 0039
ENCODING 57
SWIDTH 977 0
DWIDTH 57 0
BBX 56 53 0 -8
BITMAP
70000000000000
FC000000000000
7E000000000000
7F000000000000
1F800000000000
0F800000000000
07C00000000000
03E0FFFFFFFFFF
03E0FFFFFFFFFF
01F07FFFFFFFFE
00F07FFFFFFFFE
00F87FFFFFFFFC
00F87FFFFFFFFC
00787FFFFFFFF8
007C7FFFFFFFF8
003C3FFFFFFFF0
003C3FFFFFFFF0
003E3FFFFFFFE0
001E3FFFFFFFE0
001E3FFFFFFFE0
001E3FFFFFFFC0
001F1FFFFFFFC0
000F1FFFFFFF80
000F1FFFFFFF80
000F1FFFFFFF00
000F1FFFFFFF00
000F1FFFFFFE00
000F8000000000
00078000000000
00078000000000
00078000000000
00078000000000
00078000000000
00078000000000
0007FFFFFFFFE0
0007FFFFFFFFF0
0007FFFFFFFFF0
0003FFFFFFFFF0
00010000000000
00000000000000
00000000000000
00000000000000
0003F000001F80
0007F800003FC0
000FFC00007FE0
000FFE00007FE0
000FFE0000FFF0
000FFE0000FFF0
000FFE0000FFF0
000FFE0000FFE0
000FFC00007FE0
0007FC00003FC0
0003F000001F80
ENDCHAR
STARTCHAR 003A
ENCODING 58
SWIDTH 977 0
DWIDTH 57 0
BBX 56 56 0 -9
BITMAP
000000001FF800
000000007FFE00
00000001FFFF80
00000003FFFFC0
0000000FFFFFE0
0000000FFFFFF0
0000001FFFFFF8
0000003FFFC1FC
0000003FFF80FC
0000007FFF807E
0000007FFF007E
000000FFFF007E
000000FFFF807F
000000FFFF80FF
000000FFFFC0FF
000000FFFFFFFF
000000FFFFFFFF
000000FFFFFFFF
000000FFFFFFFF
000000FFFFFFFF
000000FFFFFFFE
0000007FFFFFFE
0000027FFFFFFE
0000063FFFFFFC
00000E3FFFFFFC
00001F1FFFFFF8
00003F0FFFFFF0
00007F87FFFFE0
0000FFC3FFFFC0
0001FFE1FFFF80
0003FFF07FFE00
0007FFF81FF000
000FFFFE000000
001FFFFFC00000
003FFFFF800000
007FFFF0000000
00FFFFF0000000
01FFFFF0000000
03FFFFF0000000
07FFFE00000000
0FFFFE00000000
1FFFFE00000000
3FFF0000000000
3FFF0000000000
7FFF0000000000
7FFF0000000000
FFFF0000000000
FFFF0000000000
FFFF0000000000
7FF00000000000
7FF00000000000
7FF00000000000
3FF00000000000
1FF00000000000
0FF00000000000
01C00000000000
ENDCHAR
STARTCHAR 003B
ENCODING 59
SWIDTH 977 0
DWIDTH 57 0
BBX 56 56 0 -10
BITMAP
0000003C000000
0000003C000000
0000003C000000
0000003C000000
0000003C000000
0000003C000000
0000003C000000
0000003C000000
0000003C000000
0000003C000000
0000003C000000
0000003C000000
0000003C000000
0000003C000000
0000003C000000
0000003C000000
0000003C000000
0000003C000000
0000003C000000
0000003C000000
0000003C000000
0000003C000000
0000003C000000
0000003C000000
0000003C000000
0000003C000000
FFFFFFFFFFFFFF
FFFFFFFFFFFFFF
FFFFFFFFFFFFFF
FFFFFFFFFFFFFF
0000003C000000
0000003C000000
0000003C000000
0000003C000000
0000003C000000
0000003C000000
0000003C000000
0000003C000000
0000003C000000
0000003C000000
0000003C000000
0000003C000000
0000003C000000
0000003C000000
0000003C000000
0000003C000000
0000003C000000
0000003C000000
0000003C000000
0000003C000000
0000003C000000
0000003C000000
0000003C000000
0000003C000000
0000003C000000
0000003C000000
ENDCHAR
STARTCHAR 003C
ENCODING 60
SWIDTH 977 0
DWIDTH 57 0
BBX 56 45 0 -4
BITMAP
0000001C000000
0000001C000000
0000003E000000
0000007F000000
0000007F000000
000000FF800000
000000FF800000
000001FFC00000
000003F7C00000
000003F7E00000
000007E3F00000
000007C3F00000
00000FC1F80000
00001F80F80000
00001F80FC0000
00003F007E0000
00003E007E0000
00007E003F0000
0000FC001F0000
0000FC001F8000
0001F8000FC000
0001F0000FC000
0003F00007E000
0007E00007E000
0007E00003F000
000FC00001F800
000F800001F800
001F800000FC00
003F000000FC00
003F0000007E00
007E0000003F00
007C0000003F00
00FC0000001F80
01F80000001F80
01F80000000FC0
03F000000007C0
03E000000007E0
07E000000003F0
0FC000000003F0
0FC000000001F8
1F8000000000F8
1F0000000000FC
3F00000000007E
7E00000000007E
FE00000000003F
ENDCHAR
STARTCHAR 003D
ENCODING 61
SWIDTH 977 0
DWIDTH 57 0
BBX 56 55 0 -9
BITMAP
000003FFE00000
00003FFFFC0000
0000FE007F8000
0003F00007C000
000F800001F000
001E0000007800
003C0000001E00
00700000000F00
00E00000000780
01C000000003C0
0387FFFC0001C0
0707FFFFC000E0
0700FE0FF00070
0E00FC03F80030
0C00FC01FC0038
1C00FC00FE0018
1800FC007E001C
3800FC007E000C
3000FC007F000E
3000FC007F000E
7000FC007F0006
7000FC007E0006
6000FC007E0007
6000FC00FC0007
6000FC01FC0003
E000FC03F00003
E000FC3FE00003
E000FFFF000003
E000FFFE000003
E000FC3F000003
6000FC1F800003
6000FC1F800007
6000FC0FC00007
7000FC07E00006
7000FC07F00006
3000FC03F0000E
3000FC01F8000E
3800FC00FC000C
1800FC00FC001C
1C00FC007E0018
0C00FC003F0038
0E00FC001F8030
0701FE001FC070
070FFFE00FF0E0
038000000001C0
01C000000003C0
00E00000000780
00700000000F00
003C0000001E00
001E0000007C00
000F800001F000
0003F00007E000
0000FE007F8000
00003FFFFC0000
000007FFE00000
ENDCHAR
STARTCHAR 003E
ENCODING 62
SWIDTH 977 0
DWIDTH 57 0
BBX 56 55 0 -9
BITMAP
000003FFE00000
00001FFFFC0000
0000FF00FF0000
0003F0000FC000
0007C00001F000
001F0000007800
003C0000001E00
00700000000F00
00E00000000780
01C000000003C0
038001FFE0C1C0
070007F0FFC0E0
07001F001FC070
0E007C0007C030
0C00F80003C038
1C01F00001C018
1803E00001E01C
3807E00000E00C
3007C00000600E
300FC00000600E
700FC000006006
701F8000000006
601F8000000007
601F8000000007
601F8000000003
E03F8000000003
E03F8000000003
E03F8000000003
E03F8000000003
E03F8000000003
603F8000000003
601F8000000007
601F8000000007
701FC000000006
700FC000000006
300FC00000000E
3007E00000200E
3807E00000700C
1803F00000E01C
1C01F80001C018
0C00FC00038038
0E007F000F0030
07003FE07C0070
07000FFFF000E0
038001FFC001C0
01C000000003C0
00E00000000780
00700000000F00
003C0000001E00
001E0000007C00
000F800001F000
0003F00007E000
0000FE007F8000
00003FFFFC0000
000007FFE00000
ENDCHAR
STARTCHAR 003F
ENCODING 63
SWIDTH 977 0
DWIDTH 57 0
BBX 55 55 1 -9
BITMAP
000007FFC00000
00003FFFF80000
0001FFFFFE0000
0007FFFFFF8000
000FFFFFFFE000
003FFFFFFFF000
007FFE00FFF800
00FFE0001FFC00
01FF800007FE00
03FF000001FF00
07FC000000FF80
07F80000003FC0
0FF00000001FE0
1FE00000000FE0
1FC00000000FF0
3F8000000007F0
3F8000000003F8
7F0000000003F8
7F0000000001FC
7E0000000001FC
FE0000000000FC
FE0000000000FC
FC0000000000FE
FC00000000007E
FC00000000007E
FC00000000007E
FC00000000007E
FC00000000007E
FC00000000007E
FC00000000007E
FC00000000007E
FC00000000007E
FC0000000000FE
FC0000000000FE
FE0000000000FC
7E0000000001FC
7F0000000001FC
7F0000000001F8
3F8000000003F8
3F8000000007F8
1FC000000007F0
1FE00000000FF0
0FF00000001FE0
0FF80000003FC0
07FC0000007F80
03FE000000FF80
01FF800003FF00
00FFE0000FFE00
007FFC007FFC00
003FFFFFFFF000
001FFFFFFFE000
0007FFFFFFC000
0001FFFFFF0000
00007FFFFC0000
00000FFFE00000
ENDCHAR
STARTCHAR 0040
ENCODING 64
SWIDTH 977 0
DWIDTH 57 0
BBX 56 55 0 -9
BITMAP
00000008000000
00000018000000
0000001C000000
0000003C000000
0000003E000000
0000007E000000
0000007F000000
000000FF000000
000000FF800000
000001FF800000
000001FFC00000
000003FFC00000
000003FFE00000
000007FFE00000
000007FFF00000
00000FFFF00000
00000FFFF80000
00001FFFF80000
00001FFFFC0000
00003FFFFC0000
00003FFFFE0000
00007FFFFE0000
00007FFFFF0000
0000FFFFFF0000
0000FFFFFF8000
0001FFFFFF8000
0001FFFFFFC000
0003FFFFFFC000
0003FFFFFFE000
0007FFFFFFE000
0007FFFFFFF000
000FFFFFFFF000
000FFFFFFFF800
001FFFFFFFF800
001FFFFFFFFC00
003FFFFFFFFC00
003FFFFFFFFE00
007FFFFFFFFE00
007FFFFFFFFF00
00FFFFFFFFFF00
00FFFFFFFFFF80
01FFFFFFFFFF80
01FFFFFFFFFFC0
03FFFFFFFFFFC0
03FFFFFFFFFFE0
07FFFFFFFFFFE0
07FFFFFFFFFFF0
0FFFFFFFFFFFF0
0FFFFFFFFFFFF8
1FFFFFFFFFFFF8
1FFFFFFFFFFFFC
3FFFFFFFFFFFFC
3FFFFFFFFFFFFE
7FFFFFFFFFFFFE
FFFFFFFFFFFFFF
ENDCHAR
STARTCHAR 0041
ENCODING 65
SWIDTH 977 0
DWIDTH 57 0
BBX 55 53 1 -8
BITMAP
80001800000000
C0001C00000000
E0001E00000000
F8001F00000000
FC001FC0000000
FE001FE0000000
FF801FF0000000
FFC01FFC000000
FFE01FFE000000
FFF81FFF000000
FFFC1FFFC00000
FFFE1FFFE00000
FFFF9FFFF00000
FFFFC7FFFC0000
FFFFE3FFFE0000
FFFFF9FFFF0000
FFFFFC7FFFC000
FFFFFE3FFFE000
FFFFFF1FFFF000
FFFFFFC7FFFC00
FFFFFFE3FFFE00
FFFFFFF1FFFF00
FFFFFFFC7FFFC0
FFFFFFFE3FFFE0
FFFFFFFF1FFFF0
FFFFFFFFC7FFFC
FFFFFFFFE3FFFE
FFFFFFFFC7FFFC
FFFFFFFF1FFFF0
FFFFFFFE3FFFE0
FFFFFFFC7FFFC0
FFFFFFF1FFFF00
FFFFFFE3FFFE00
FFFFFFC7FFFC00
FFFFFF1FFFF000
FFFFFE3FFFE000
FFFFFC7FFFC000
FFFFF9FFFF0000
FFFFE3FFFE0000
FFFFC7FFFC0000
FFFF9FFFF00000
FFFE1FFFE00000
FFFC1FFFC00000
FFF01FFF000000
FFE01FFE000000
FFC01FFC000000
FF801FF0000000
FE001FE0000000
FC001FC0000000
F8001F00000000
E0001E00000000
C0001C00000000
80001000000000
ENDCHAR
STARTCHAR 0042
ENCODING 66
SWIDTH 977 0
DWIDTH 57 0
BBX 49 59 4 -11
BITMAP
800000000FFF80
E00000000FFF80
F00000000FFF80
FC0000000FFF80
FF0000000FFF80
FF8000000FFF80
FFE000000FFF80
FFF000000FFF80
FFFC00000FFF80
FFFF00000FFF80
FFFF80000FFF80
FFFFE0000FFF80
FFFFF8000FFF80
FFFFFC000FFF80
FFFFFF000FFF80
FFFFFFC00FFF80
FFFFFFE00FFF80
FFFFFFF80FFF80
FFFFFFFE0FFF80
FFFFFFFF0FFF80
FFFFFFFFCFFF80
FFFFFFFFEFFF80
FFFFFFFFFFFF80
FFFFFFFFFFFF80
FFFFFFFFFFFF80
FFFFFFFFFFFF80
FFFFFFFFFFFF80
FFFFFFFFFFFF80
FFFFFFFFFFFF80
FFFFFFFFFFFF80
FFFFFFFFFFFF80
FFFFFFFFFFFF80
FFFFFFFFFFFF80
FFFFFFFFFFFF80
FFFFFFFFFFFF80
FFFFFFFFFFFF80
FFFFFFFFFFFF80
FFFFFFFFFFFF80
FFFFFFFFCFFF80
FFFFFFFF0FFF80
FFFFFFFE0FFF80
FFFFFFF80FFF80
FFFFFFF00FFF80
FFFFFFC00FFF80
FFFFFF000FFF80
FFFFFE000FFF80
FFFFF8000FFF80
FFFFE0000FFF80
FFFFC0000FFF80
FFFF00000FFF80
FFFC00000FFF80
FFF800000FFF80
FFE000000FFF80
FF8000000FFF80
FF0000000FFF80
FC0000000FFF80
F80000000FFF80
E00000000FFF80
800000000FFF80
ENDCHAR
STARTCHAR 0043
ENCODING 67
SWIDTH 977 0
DWIDTH 57 0
BBX 43 59 7 -11
BITMAP
FFFFC0FFFFE0
FFFFC0FFFFE0
FFFFC0FFFFE0
FFFFC0FFFFE0
FFFFC0FFFFE0
FFFFC0FFFFE0
FFFFC0FFFFE0
FFFFC0FFFFE0
FFFFC0FFFFE0
FFFFC0FFFFE0
FFFFC0FFFFE0
FFFFC0FFFFE0
FFFFC0FFFFE0
FFFFC0FFFFE0
FFFFC0FFFFE0
FFFFC0FFFFE0
FFFFC0FFFFE0
FFFFC0FFFFE0
FFFFC0FFFFE0
FFFFC0FFFFE0
FFFFC0FFFFE0
FFFFC0FFFFE0
FFFFC0FFFFE0
FFFFC0FFFFE0
FFFFC0FFFFE0
FFFFC0FFFFE0
FFFFC0FFFFE0
FFFFC0FFFFE0
FFFFC0FFFFE0
FFFFC0FFFFE0
FFFFC0FFFFE0
FFFFC0FFFFE0
FFFFC0FFFFE0
FFFFC0FFFFE0
FFFFC0FFFFE0
FFFFC0FFFFE0
FFFFC0FFFFE0
FFFFC0FFFFE0
FFFFC0FFFFE0
FFFFC0FFFFE0
FFFFC0FFFFE0
FFFFC0FFFFE0
FFFFC0FFFFE0
FFFFC0FFFFE0
FFFFC0FFFFE0
FFFFC0FFFFE0
FFFFC0FFFFE0
FFFFC0FFFFE0
FFFFC0FFFFE0
FFFFC0FFFFE0
FFFFC0FFFFE0
FFFFC0FFFFE0
FFFFC0FFFFE0
FFFFC0FFFFE0
FFFFC0FFFFE0
FFFFC0FFFFE0
FFFFC0FFFFE0
FFFFC0FFFFE0
FFFFC0FFFFE0
ENDCHAR
STARTCHAR 0044
ENCODING 68
SWIDTH 977 0
DWIDTH 57 0
BBX 49 59 4 -11
BITMAP
80000000000000
C0000000000000
F0000000000000
FC000000000000
FE000000000000
FF800000000000
FFE00000000000
FFF00000000000
FFFC0000000000
FFFF0000000000
FFFF8000000000
FFFFE000000000
FFFFF000000000
FFFFFC00000000
FFFFFF00000000
FFFFFF80000000
FFFFFFE0000000
FFFFFFF8000000
FFFFFFFC000000
FFFFFFFF000000
FFFFFFFFC00000
FFFFFFFFE00000
FFFFFFFFF80000
FFFFFFFFFE0000
FFFFFFFFFF0000
FFFFFFFFFFC000
FFFFFFFFFFE000
FFFFFFFFFFF800
FFFFFFFFFFFE00
FFFFFFFFFFFF80
FFFFFFFFFFFE00
FFFFFFFFFFFC00
FFFFFFFFFFF000
FFFFFFFFFFC000
FFFFFFFFFF8000
FFFFFFFFFE0000
FFFFFFFFF80000
FFFFFFFFF00000
FFFFFFFFC00000
FFFFFFFF000000
FFFFFFFE000000
FFFFFFF8000000
FFFFFFF0000000
FFFFFFC0000000
FFFFFF00000000
FFFFFE00000000
FFFFF800000000
FFFFE000000000
FFFFC000000000
FFFF0000000000
FFFC0000000000
FFF80000000000
FFE00000000000
FF800000000000
FF000000000000
FC000000000000
F8000000000000
E0000000000000
80000000000000
ENDCHAR
STARTCHAR 0045
ENCODING 69
SWIDTH 977 0
DWIDTH 57 0
BBX 55 55 1 -9
BITMAP
000007FFC00000
00003FFFF80000
0001FFFFFE0000
0007FFFFFF8000
000FFFFFFFE000
003FFFFFFFF000
007FFFFFFFF800
00FFFFFFFFFE00
01FFFFFFFFFF00
03FFFFFFFFFF00
07FFFFFFFFFF80
07FFFFFFFFFFC0
0FFFFFFFFFFFE0
1FFFFFFFFFFFE0
1FFFFFFFFFFFF0
3FFFFF83FFFFF0
3FFFFC007FFFF8
7FFFF0003FFFF8
7FFFE0000FFFFC
7FFFC00007FFFC
FFFF800007FFFC
FFFF800003FFFC
FFFF000001FFFE
FFFF000001FFFE
FFFE000001FFFE
FFFE000001FFFE
FFFE000000FFFE
FFFE000000FFFE
FFFE000000FFFE
FFFE000001FFFE
FFFE000001FFFE
FFFF000001FFFE
FFFF000001FFFE
FFFF800003FFFC
FFFF800007FFFC
7FFFC00007FFFC
7FFFE0000FFFFC
7FFFF0001FFFF8
3FFFFC007FFFF8
3FFFFF03FFFFF0
1FFFFFFFFFFFF0
1FFFFFFFFFFFE0
0FFFFFFFFFFFE0
07FFFFFFFFFFC0
07FFFFFFFFFF80
03FFFFFFFFFF80
01FFFFFFFFFF00
00FFFFFFFFFE00
007FFFFFFFFC00
003FFFFFFFF000
000FFFFFFFE000
0007FFFFFFC000
0001FFFFFF0000
00007FFFF80000
00000FFFC00000
ENDCHAR
STARTCHAR 0046
ENCODING 70
SWIDTH 977 0
DWIDTH 57 0
BBX 55 55 1 -9
BITMAP
FFFFFFFFFFFFFE
FFFFFFFFFFFFFE
FFFFFFFFFFFFFE
FFFFFFFFFFFFFE
FFFFFFFFFFFFFE
FFFFFFFFFFFFFE
FFFFFFFFFFFFFE
FFFFFFFFFFFFFE
FFFFFFFFFFFFFE
FFFFFFFFFFFFFE
FFFFFFFFFFFFFE
FFFFFFFFFFFFFE
FFFFFFFFFFFFFE
FFFFFFFFFFFFFE
FFFFFFFFFFFFFE
FFFFFFFFFFFFFE
FFFFFFFFFFFFFE
FFFFFFFFFFFFFE
FFFFFFFFFFFFFE
FFFFFFFFFFFFFE
FFFFFFFFFFFFFE
FFFFFFFFFFFFFE
FFFFFFFFFFFFFE
FFFFFFFFFFFFFE
FFFFFFFFFFFFFE
FFFFFFFFFFFFFE
FFFFFFFFFFFFFE
FFFFFFFFFFFFFE
FFFFFFFFFFFFFE
FFFFFFFFFFFFFE
FFFFFFFFFFFFFE
FFFFFFFFFFFFFE
FFFFFFFFFFFFFE
FFFFFFFFFFFFFE
FFFFFFFFFFFFFE
FFFFFFFFFFFFFE
FFFFFFFFFFFFFE
FFFFFFFFFFFFFE
FFFFFFFFFFFFFE
FFFFFFFFFFFFFE
FFFFFFFFFFFFFE
FFFFFFFFFFFFFE
FFFFFFFFFFFFFE
FFFFFFFFFFFFFE
FFFFFFFFFFFFFE
FFFFFFFFFFFFFE
FFFFFFFFFFFFFE
FFFFFFFFFFFFFE
FFFFFFFFFFFFFE
FFFFFFFFFFFFFE
FFFFFFFFFFFFFE
FFFFFFFFFFFFFE
FFFFFFFFFFFFFE
FFFFFFFFFFFFFE
FFFFFFFFFFFFFE
ENDCHAR
STARTCHAR 0047
ENCODING 71
SWIDTH 977 0
DWIDTH 57 0
BBX 49 59 4 -11
BITMAP
FFF80000000080
FFF80000000380
FFF80000000F80
FFF80000001F80
FFF80000007F80
FFF8000001FF80
FFF8000003FF80
FFF800000FFF80
FFF800001FFF80
FFF800007FFF80
FFF80001FFFF80
FFF80003FFFF80
FFF8000FFFFF80
FFF8003FFFFF80
FFF8007FFFFF80
FFF801FFFFFF80
FFF807FFFFFF80
FFF80FFFFFFF80
FFF83FFFFFFF80
FFF87FFFFFFF80
FFF9FFFFFFFF80
FFFFFFFFFFFF80
FFFFFFFFFFFF80
FFFFFFFFFFFF80
FFFFFFFFFFFF80
FFFFFFFFFFFF80
FFFFFFFFFFFF80
FFFFFFFFFFFF80
FFFFFFFFFFFF80
FFFFFFFFFFFF80
FFFFFFFFFFFF80
FFFFFFFFFFFF80
FFFFFFFFFFFF80
FFFFFFFFFFFF80
FFFFFFFFFFFF80
FFFFFFFFFFFF80
FFFFFFFFFFFF80
FFFFFFFFFFFF80
FFF9FFFFFFFF80
FFF8FFFFFFFF80
FFF83FFFFFFF80
FFF81FFFFFFF80
FFF807FFFFFF80
FFF801FFFFFF80
FFF800FFFFFF80
FFF8003FFFFF80
FFF8000FFFFF80
FFF80007FFFF80
FFF80001FFFF80
FFF800007FFF80
FFF800003FFF80
FFF800000FFF80
FFF8000007FF80
FFF8000001FF80
FFF80000007F80
FFF80000003F80
FFF80000000F80
FFF80000000380
FFF80000000180
ENDCHAR
STARTCHAR 0048
ENCODING 72
SWIDTH 977 0
DWIDTH 57 0
BBX 55 53 1 -8
BITMAP
00000000200002
00000000600006
00000001E0001E
00000003E0003E
00000007E0007E
0000001FE001FE
0000003FE003FE
0000007FE007FE
000001FFE01FFE
000003FFE03FFE
000007FFE07FFE
00001FFFE1FFFE
00003FFFE3FFFE
00007FFFC7FFFE
0001FFFF9FFFFE
0003FFFE3FFFFE
0007FFFC7FFFFE
000FFFF9FFFFFE
003FFFE3FFFFFE
007FFFC7FFFFFE
00FFFF9FFFFFFE
03FFFE3FFFFFFE
07FFFC7FFFFFFE
0FFFF9FFFFFFFE
3FFFE3FFFFFFFE
7FFFC7FFFFFFFE
FFFF9FFFFFFFFE
7FFFC7FFFFFFFE
3FFFE3FFFFFFFE
1FFFF9FFFFFFFE
07FFFC7FFFFFFE
03FFFE3FFFFFFE
01FFFF9FFFFFFE
007FFFC7FFFFFE
003FFFE3FFFFFE
001FFFF9FFFFFE
0007FFFC7FFFFE
0003FFFE3FFFFE
0001FFFF9FFFFE
00007FFFC7FFFE
00003FFFE3FFFE
00001FFFE1FFFE
000007FFE07FFE
000003FFE03FFE
000001FFE01FFE
0000007FE007FE
0000003FE003FE
0000001FE001FE
00000007E0007E
00000003E0003E
00000001E0001E
00000000600006
00000000200002
ENDCHAR
STARTCHAR 0049
ENCODING 73
SWIDTH 977 0
DWIDTH 57 0
BBX 55 55 1 -9
BITMAP
F8200000000000
F8300000000000
F83C0000000000
F83F0000000000
F83F8000000000
F83F8000000000
F83F8000000000
F83F8000000000
F83F8300000000
F83F8380000000
F83F83E0000000
F83F83F8000000
F83F83FC000000
F83F83FF000000
F83F83FFC00000
F83F83FFE00000
F83F83FFF80000
F83F83FFFE0000
F83F83FFFF0000
F83F83FFFFC000
F83F83FFFFF000
F83F83FFFFF800
F83F83FFFFFE00
F83F83FFFFFF00
F83F83FFFFFFC0
F83F83FFFFFFF0
F83F83FFFFFFF8
F83F83FFFFFFFE
F83F83FFFFFFFC
F83F83FFFFFFF0
F83F83FFFFFFC0
F83F83FFFFFF80
F83F83FFFFFE00
F83F83FFFFF800
F83F83FFFFF000
F83F83FFFFC000
F83F83FFFF0000
F83F83FFFE0000
F83F83FFF80000
F83F83FFF00000
F83F83FFC00000
F83F83FF000000
F83F83FE000000
F83F83F8000000
F83F83E0000000
F83F83C0000000
F83F8300000000
F83F8200000000
F83F8000000000
F83F8000000000
F83F8000000000
F83F0000000000
F83C0000000000
F8380000000000
F8200000000000
ENDCHAR
STARTCHAR 004A
ENCODING 74
SWIDTH 977 0
DWIDTH 57 0
BBX 55 55 1 -9
BITMAP
00000010000000
00000030000000
00000038000000
0000007C000000
000000FE000000
000001FE000000
000001FF000000
000003FF800000
000007FFC00000
00000FFFC00000
00000FFFE00000
00001FFFF00000
00003FFFF80000
00007FFFF80000
00007FFFFC0000
0000FFFFFE0000
0001FFFFFF0000
0003FFFFFF0000
0003FFFFFF8000
0007FFFFFFC000
000FFFFFFFE000
001FFFFFFFE000
001FFFFFFFF000
003FFFFFFFF800
007FFFFFFFFC00
00FFFFFFFFFC00
00FFFFFFFFFE00
01FFFFFFFFFF00
03FFFFFFFFFF80
07FFFFFFFFFF80
0FFFFFFFFFFFC0
0FFFFFFFFFFFE0
1FFFFFFFFFFFF0
3FFFFFFFFFFFF0
7FFFFFFFFFFFF8
7FFFFFFFFFFFFC
FFFFFFFFFFFFFE
00000000000000
00000000000000
00000000000000
00000000000000
FFFFFFFFFFFFFE
FFFFFFFFFFFFFE
FFFFFFFFFFFFFE
FFFFFFFFFFFFFE
FFFFFFFFFFFFFE
FFFFFFFFFFFFFE
FFFFFFFFFFFFFE
FFFFFFFFFFFFFE
FFFFFFFFFFFFFE
FFFFFFFFFFFFFE
FFFFFFFFFFFFFE
FFFFFFFFFFFFFE
FFFFFFFFFFFFFE
FFFFFFFFFFFFFE
ENDCHAR
STARTCHAR 004B
ENCODING 75
SWIDTH 977 0
DWIDTH 57 0
BBX 55 57 1 -10
BITMAP
00000000000300
00000000000F80
00000000001F80
00000000003F80
00000000007F80
00000000007F80
0000000000FF80
0000000000FF00
0000000001FF00
0000000001FE00
0000000003FC00
0000000007FC00
0000000007F800
000000000FF800
000000000FF000
000000001FF000
000000001FE000
000000003FC000
1FFFFFFFFFC000
1FFFFFFFFF8000
3FFFFFFFFF8000
7FFFFFFFFF8000
7FFFFFFFFFC000
FFFFFFFFFFC000
FFFFFFFFFFE000
07FFFFFFFFE000
003FFFFFFFF000
0000FFFFFFF000
000007FFFFF800
0000003FFFFC00
0000003FFFFC00
0000007FFFFE00
0000007FFFFE00
000000FFBFFF00
000000FF1FFF00
000001FF1FFF80
000001FE0FFF80
000003FC07FFC0
000003F803FFE0
000007F801FFE0
000007F000FFF0
00000FE0007FF0
00007FE0003FF8
000FFFC0003FF8
001FFF80001FFC
001FFF80000FFE
003FFFC00007FE
007FFFC00003FC
0003FFE00001FC
00001FE00000F8
00000FE00000F8
000007F0000070
000003F0000020
000003E0000000
000001E0000000
000000C0000000
00000040000000
ENDCHAR
STARTCHAR 004C
ENCODING 76
SWIDTH 977 0
DWIDTH 57 0
BBX 48 59 4 -11
BITMAP
000000000200
000000000200
000000000600
000000000700
000000000F00
000000000F80
00007FC00F80
0007FFFF9FC0
001FFFFFFFC0
003FFFFFFFC0
00FFFFFFFFE0
01FFFFFFFFE0
03FFFFFFFFF0
07FFFFFFFFF0
0FF801FFFFF0
0FC0003FFFF8
1E00000FFFF8
38000007FFFC
4000000FFFFC
0000001FFFFC
0000001FFFFE
0000003FFFFE
0000007FFFFF
0000007FFFFF
000000FFFF80
000001FF8000
000001800000
000000000000
000000000000
000000000000
000000000000
000000000000
000000400000
00003F800000
003FFF800000
BFFFFF000000
7FFFFE000000
7FFFFE000000
3FFFFC000000
3FFFF8000000
3FFFF8000003
1FFFF0000006
1FFFF000003C
0FFFFC0000F8
0FFFFF8007F0
0FFFFFFFFFF0
07FFFFFFFFE0
07FFFFFFFFC0
03FFFFFFFF80
03FFFFFFFE00
01FFFFFFFC00
01FBFFFFF000
01F80FFF8000
00F800000000
00F000000000
007000000000
006000000000
006000000000
002000000000
ENDCHAR
STARTCHAR 004D
ENCODING 77
SWIDTH 977 0
DWIDTH 57 0
BBX 56 47 0 -5
BITMAP
00003FFC000000
0001FFFF800000
0007FFFFE00000
001FFFFFF80000
003FFFFFFC0000
007FFFFFFF0000
00FFFFFFFF8000
01FFE007FFC000
03FF8001FFE000
07FE00007FE000
0FFC00001FF000
0FF800000FF800
1FF0000007F800
1FE0000007FC00
3FC0000003FC00
3FC0000001FE00
7F80000001FE00
7F80000000FE00
7F00000000FE00
7F000000FFFFFF
7F0000007FFFFE
FF0000003FFFFC
FF0000001FFFF8
FF0000000FFFF0
FF00000007FFE0
FF00000007FFE0
7F00000003FFC0
7F00000001FF80
7F00000000FF00
7F800000007E00
7F800000003C00
3FC00000003800
3FC00000001800
1FE00000000000
1FF00000000000
0FF80000000000
0FFC0000000000
07FE0000600000
03FF8001E00000
01FFF007F00000
00FFFFFFF00000
007FFFFFF00000
003FFFFFF80000
001FFFFFF80000
0007FFFFE00000
0001FFFF800000
00003FFC000000
ENDCHAR
STARTCHAR 004E
ENCODING 78
SWIDTH 977 0
DWIDTH 57 0
BBX 56 41 0 -2
BITMAP
000000000000C0
000000000001F0
000000000003F8
000000000007FC
00000000000FFE
00000000001FFF
00000000003FFF
00000000007FFF
0000000000FFFF
0000000001FFFE
0000000003FFFC
0000000007FFF8
078000000FFFF0
0FC000001FFFE0
1FE000003FFFC0
3FF000007FFF80
7FF80000FFFF00
7FFC0001FFFE00
FFFE0003FFFC00
7FFF0007FFF800
7FFF800FFFF000
3FFFC01FFFE000
1FFFE03FFFC000
0FFFF07FFF8000
07FFF8FFFF0000
03FFFDFFFE0000
01FFFFFFFC0000
00FFFFFFF80000
007FFFFFF00000
003FFFFFE00000
001FFFFFC00000
000FFFFF800000
0007FFFF000000
0003FFFE000000
0001FFFC000000
0000FFF8000000
00007FF0000000
00003FE0000000
00001FC0000000
00000F80000000
00000200000000
ENDCHAR
STARTCHAR 004F
ENCODING 79
SWIDTH 977 0
DWIDTH 57 0
BBX 55 55 1 -9
BITMAP
3FF80000000000
7FFFC000000000
FFFFF800000000
FFFFFF00000000
FFFFFFC0000000
FFFFFFF0000000
FFFFFFFC000000
FFFFFFFE000000
7FFFFFFF800000
3FFFFFFFC00000
007FFFFFF00000
0001FFFFF80000
00003FFFFC0000
000007FFFE0000
000001FFFF0000
0000007FFF8000
1FC0003FFFC000
7FFC000FFFE000
FFFF8007FFF000
FFFFF003FFF800
FFFFF801FFF800
FFFFFE007FFC00
FFFFFF803FFE00
FFFFFFC03FFE00
7FFFFFE01FFF00
3FFFFFF00FFF80
07FFFFF807FF80
000FFFFC03FFC0
0003FFFE03FFC0
0000FFFF01FFE0
00003FFF80FFE0
00001FFF80FFE0
00000FFFC07FF0
000003FFC07FF0
000003FFE07FF8
000001FFE03FF8
000000FFF03FF8
07F8007FF01FF8
1FFC007FF81FFC
3FFF003FF81FFC
7FFF003FF81FFC
7FFF801FFC0FFC
FFFFC01FFC0FFC
FFFFC01FFC0FFE
FFFFC00FFC0FFE
FFFFC00FFC0FFE
FFFFC00FFE0FFE
FFFFC00FFE07FE
FFFFC00FFE07FE
FFFFC00FFE07FE
7FFF800FFE07FE
7FFF0007FE07FE
3FFF0007FC07FE
1FFC0003FC03FC
07F80001F001F8
ENDCHAR
STARTCHAR 0050
ENCODING 80
SWIDTH 977 0
DWIDTH 57 0
BBX 53 59 2 -11
BITMAP
000003FC000000
00003FFFC00000
0000FFFFF00000
0001FFFFFC0000
0007FFFFFE0000
000FFFFFFF0000
001FFFFFFFC000
003FFFFFFFC000
007FFFFFFFE000
00FFFC01FFF000
00FFF0007FF800
01FFC0003FF800
01FF80001FFC00
03FF00000FFC00
03FF000007FE00
03FE000003FE00
07FC000003FE00
07FC000003FE00
07FC000001FE00
07FC000001FF00
07FC000001FF00
07F8000001FF00
07F8000001FF00
07F8000001FF00
07F8000001FF00
07F8000001FF00
FFFFFFFFFFFFF8
FFFFFFFFFFFFF8
FFFFFFFFFFFFF8
FFFFFFFFFFFFF8
FFFFFFFFFFFFF8
FFFFFFFFFFFFF8
FFFFFFFFFFFFF8
FFFFFFFFFFFFF8
FFFFFF0FFFFFF8
FFFFFE07FFFFF8
FFFFFC03FFFFF8
FFFFFC03FFFFF8
FFFFFC03FFFFF8
FFFFFE03FFFFF8
FFFFFE07FFFFF8
FFFFFF0FFFFFF8
FFFFFF0FFFFFF8
FFFFFF07FFFFF8
FFFFFF07FFFFF8
FFFFFF07FFFFF8
FFFFFF07FFFFF8
FFFFFF07FFFFF8
FFFFFF07FFFFF8
FFFFFE07FFFFF8
FFFFFE07FFFFF8
FFFFFFFFFFFFF8
FFFFFFFFFFFFF8
FFFFFFFFFFFFF8
FFFFFFFFFFFFF8
FFFFFFFFFFFFF8
FFFFFFFFFFFFF8
FFFFFFFFFFFFF8
FFFFFFFFFFFFF8
ENDCHAR
STARTCHAR 0051
ENCODING 81
SWIDTH 977 0
DWIDTH 57 0
BBX 56 55 0 -9
BITMAP
001FFFFFFFF800
001FFFFFFFF800
001FFFFFFFF800
001FFFFFFFF800
001FFFFFFFF800
001FFFFFFFF800
001FFFFFFFF800
001FFFFFFFF800
001FFFFFFFF800
001FFFFFFFF800
001FFFFFFFF800
001FFFFFFFF800
001FFFFFFFF800
001FFFFFFFF800
001FFFFFFFF800
001FFFFFFFF800
001FFFFFFFF800
001FFFFFFFF800
001FFFFFFFF800
001FFFFFFFF800
0000001C000000
0000000C000000
0000000C000000
0000000C000000
0000000C000000
0000000C000000
0000000C000000
0000000C000000
0000000C000000
000FFFFFFFFC00
000FFFFFFFFC00
000C0000000C00
000C0000000C00
000C0000000C00
000C0000000C00
000C0000000C00
FFFFFF00FFFFFF
FFFFFF00FFFFFF
FFFFFF00FFFFFF
FFFFFF00FFFFFF
FFFFFF00FFFFFF
FFFFFF00FFFFFF
FFFFFF00FFFFFF
FFFFFF00FFFFFF
FFFFFF00FFFFFF
FFFFFF00FFFFFF
FFFFFF00FFFFFF
FFFFFF00FFFFFF
FFFFFF00FFFFFF
FFFFFF00FFFFFF
FFFFFF00FFFFFF
FFFFFF00FFFFFF
FFFFFF00FFFFFF
FFFFFF00FFFFFF
FFFFFF00FFFFFF
ENDCHAR
STARTCHAR 0052
ENCODING 82
SWIDTH 977 0
DWIDTH 57 0
BBX 55 33 1 2
BITMAP
00000E00000000
00000F80000000
000007C0000000
000007E0000000
000003F0000000
000003FC000000
007FFFFE0FFC00
01FFFFFF0FFF00
07FFFFFF8FFFC0
0FFFFFFFCFFFE0
1FFFFFFF8FFFF0
3FFFFFFF0FFFF8
7FFFFFFE0FFFF8
7FC003F8000FFC
FF8007F00003FC
FF0007E00001FE
FE000FC00001FE
FE000F000000FE
FE000E000000FE
FE0000000000FE
FE0000000000FE
FE0000000000FE
FE0000000001FE
FF0000000001FE
FF8000000003FC
7FC00000000FFC
7FFFFFFFFFFFF8
3FFFFFFFFFFFF8
1FFFFFFFFFFFF0
0FFFFFFFFFFFE0
07FFFFFFFFFFC0
01FFFFFFFFFF00
007FFFFFFFFC00
ENDCHAR
STARTCHAR 0053
ENCODING 83
SWIDTH 977 0
DWIDTH 57 0
BBX 56 47 0 -5
BITMAP
00000000060000
000000000F8000
000000001FC000
000000003FE000
000000007FF000
00000000FFF800
00000001FFFC00
00000003FFFE00
00000007FFFF00
7FFFFF0FFFFF80
FFFFFF9FFFFFC0
FFFFFF3FFFFFE0
FFFFFE7FFFFFF0
FFFFFCFFFFFFF8
FFFFF9FFFFFFFC
FFFFF3FFFFFFFE
FFFFF7FFFFFFFE
FFFFF7FE3FE7FF
FFE007FC3FE1FF
FF8007E03FE07E
FF87F387BFEF0C
FF1FF83FBFEFC1
FF3FFFFFBFEFFF
FF3FFFFFBFEFFF
FE3FFFFFBFEFFF
FE7FFFFFBFEFFE
FE7FFFFFBFEFFE
FE7FFFFFBFEFFE
FCFFFFFFBFEFFC
FCFFFFFFBFEFFC
FCFFFFFFBFEFFC
F8FFFFFFBFEFFC
F9FFFFFFBFEFF8
F9FFFFFFBFEFF8
F9FFFFFFBFEFF8
F3FFFFFFBFEFF8
F3FFFFFF9FEFF0
F3FFFFFFCF8FF0
E3FFFFFFE03FF0
E7FFFFFFFFFFE0
E7FFFFFFFFFFE0
E7FFFFFFFFFFE0
4FFFFFFFFFFFE0
0FFFFFFFFFFFC0
0FFFFFFFFFFFC0
0FFFFFFFFFFF80
07FFFFFFFFFF00
ENDCHAR
STARTCHAR 0054
ENCODING 84
SWIDTH 977 0
DWIDTH 57 0
BBX 56 55 0 -9
BITMAP
000003FFE00000
00003FFFFC0000
0000FFFFFF0000
0003FFFFFFC000
0007FFFFFFF000
001FFFFFFFF800
003FFFFFFFFC00
007FFFFFFFFE00
00FFFF00FFFF00
01FFF8000FFF80
03FFE00003FFC0
07FF800001FFE0
07FF8000007FF0
0FFFC000003FF0
0FFFE000001FF8
1FFFF000000FF8
1FF7F800000FFC
3FE3FC000007FC
3FE1FE000007FC
3FC0FF000003FE
7FC07F800003FE
7FC03FC00001FE
7F801FE00001FF
7F800FF00001FF
7F8007F80001FF
FF8003FC0000FF
FF8001FE0000FF
FF8000FF0000FF
FF80007F8000FF
FF80003FC000FF
7F80001FE000FF
7F80000FF001FF
7F800007F801FF
7FC00003FC01FE
7FC00001FE03FE
3FC00000FF03FE
3FE000007F83FE
3FE000003FC7FC
1FF000001FEFFC
1FF800000FFFF8
0FFC000007FFF8
0FFE000003FFF0
07FF000001FFF0
07FF800001FFE0
03FFC00003FFC0
01FFF0000FFF80
00FFFE007FFF80
007FFFFFFFFF00
003FFFFFFFFE00
001FFFFFFFF800
000FFFFFFFF000
0003FFFFFFC000
0000FFFFFF8000
00003FFFFC0000
000007FFE00000
ENDCHAR
STARTCHAR 0055
ENCODING 85
SWIDTH 977 0
DWIDTH 57 0
BBX 56 49 0 -6
BITMAP
0000000C000000
0000001E000000
0000003E000000
0000007E000000
000000FE000000
000001FE000000
000003FE000000
000007FE000000
00000FFE000000
00001FFE000000
00003FFE000000
00003FFE000000
00007FFE000000
0000FFFE000000
7FFFFFFE000000
FFFFFFFE000000
FFFFFFFE000000
FFFFFFFE000000
FFFFFFFE000000
FFFFFFFE000000
FFFFFFFE000000
FFFFFFFE0FFFFF
FFFFFFFE0FFFFF
FFFFFFFE0FFFFF
FFFFFFFE0FFFFF
FFFFFFFE0FFFFF
FFFFFFFE0FFFFF
FFFFFFFE0FFFFF
FFFFFFFE000000
FFFFFFFE000000
FFFFFFFE000000
FFFFFFFE000000
FFFFFFFE000000
7FFFFFFE000000
0001FFFE000000
0000FFFE000000
00007FFE000000
00003FFE000000
00001FFE000000
00001FFE000000
00000FFE000000
000007FE000000
000003FE000000
000001FE000000
000000FE000000
0000007E000000
0000003E000000
0000001E000000
0000000C000000
ENDCHAR
STARTCHAR 0056
ENCODING 86
SWIDTH 977 0
DWIDTH 57 0
BBX 55 51 1 -7
BITMAP
0000000C000000
0000001E000000
0000003E000000
0000007E000000
000000FE000000
000000FE000000
000001FE000000
000003FE000000
000007FE000000
00000FFE000000
00001FFE000000
00003FFE000000
00007FFE000000
0000FFFE000000
0001FFFE000000
FFFFFFFE003F00
FFFFFFFE003F00
FFFFFFFE003F00
FFFFFFFE003F00
FFFFFFFE003F00
FFFFFFFE003F00
FFFFFFFE003F00
FFFFFFFE1FFFFE
FFFFFFFE3FFFFE
FFFFFFFE3FFFFE
FFFFFFFE3FFFFE
FFFFFFFE3FFFFE
FFFFFFFE3FFFFE
FFFFFFFE3FFFFE
FFFFFFFE003F00
FFFFFFFE003F00
FFFFFFFE003F00
FFFFFFFE003F00
FFFFFFFE003F00
FFFFFFFE003F00
FFFFFFFE003F00
0001FFFE000000
0000FFFE000000
00007FFE000000
00003FFE000000
00001FFE000000
00000FFE000000
000007FE000000
000007FE000000
000003FE000000
000001FE000000
000000FE000000
0000007E000000
0000003E000000
0000001E000000
0000000C000000
ENDCHAR
STARTCHAR 0057
ENCODING 87
SWIDTH 977 0
DWIDTH 57 0
BBX 56 55 0 -9
BITMAP
00000000003800
007FC00003FF80
01FFF8000FFFC0
07FFFC003FFFF0
0FFFFE007FFFF8
1FFFFF00FFFFFC
3FFFFF81FFFFFC
3FFFFFC3FFFFFE
7FFFFFC3FFFFFE
7FFFFFE7FFFFFF
7FFFFFEFFFFFFF
7FFFFFFFFFFFFF
FFFFFFFFFFFFFF
7FFFFFFFFFFFFF
7FFFFFFFFFFFFF
7FFFFFFFFFFFFF
7FFFFFFFFFFFFF
7FFFFFFFFFFFFF
3FFFFFFFFFFFFE
3FFFFFFFFFFFFE
1FFFFFFFFFFFFE
1FFFFFFFFFFFFC
0FFFFFFFFFFFF8
07FFFFFFFFFFF0
03FFFFFFFFFFF0
03FFFFFFFFFFE0
01FFFFFFFFFFC0
00FFFFFFFFFF80
007FFFFFFFFF00
003FFFFFFFFE00
001FFFFFFFFC00
000FFFFFFFF800
0007FFFFFFF000
0003FFFFFFE000
0001FFFFFFC000
0000FFFFFFC000
00007FFFFF8000
00003FFFFF0000
00001FFFFE0000
00000FFFFC0000
000007FFF80000
000003FFF00000
000001FFE00000
000000FFC00000
0000007F800000
0000007F800000
0000003F000000
0000003E000000
0000001E000000
0000001C000000
0000000C000000
00000008000000
00000008000000
00000008000000
00000008000000
ENDCHAR
STARTCHAR 0058
ENCODING 88
SWIDTH 977 0
DWIDTH 57 0
BBX 47 59 5 -11
BITMAP
001F00000000
003F00000000
003F80000000
003F80000000
003F80000000
003F80000000
003F80000000
003F80000000
003F80000000
003F80000000
003F80000000
003F80000000
003F80000000
003F80000000
003F80000000
003F80000000
003F83000000
003F87C00000
003F8FC00000
003F8FE04000
003F8FE1F000
003F8FE3F000
003F8FE3F07C
003F8FE3F0FC
003F8FE3F0FE
7C3F8FE3F0FE
FC3F8FE3F8FE
FC3FFFFFFFFE
FC3FFFFFFFFE
FC3FFFFFFFFE
FC3FFFFFFFFE
FC3FFFFFFFFE
FC3FFFFFFFFE
FC3FFFFFFFFE
FC3FFFFFFFFE
FC3FFFFFFFFE
FC3FFFFFFFFE
FE3FFFFFFFFE
FFFFFFFFFFFE
FFFFFFFFFFFE
FFFFFFFFFFFE
FFFFFFFFFFFE
7FFFFFFFFFFE
7FFFFFFFFFFE
3FFFFFFFFFFE
3FFFFFFFFFFE
1FFFFFFFFFFE
0FFFFFFFFFFE
0FFFFFFFFFFE
07FFFFFFFFFE
03FFFFFFFFFE
03FFFFFFFFFE
01FFFFFFFFFE
00FFFFFFFFFE
00FFFFFFFFFC
007FFFFFFFFC
003FFFFFFFFC
003FFFFFFFF8
001FFFFFFFF0
ENDCHAR
STARTCHAR 0059
ENCODING 89
SWIDTH 977 0
DWIDTH 57 0
BBX 42 59 7 -11
BITMAP
00001E000000
00001F000000
00003F000000
00003F000000
00003F000000
00183F060000
003E3F0F8000
007E3F1F8000
007E3F1F8000
007E3F1F8000
007E3F1F8000
007E3F1F8000
007E3F1F8380
007E3F1F87C0
007E3F1F87C0
007E3F1F87C0
007E3F1F87C0
007E3F1F87C0
007E3F1F87C0
007E3F1F87C0
007E3F1F87C0
007E3F1F87C0
007E3F1F87C0
007E3F1F87C0
007E3F1F87C0
007E3F1F87C0
007E3F1F87C0
007E3F1F87C0
787E3F1F87C0
FC7E3F9FCFC0
FC7FFFFFFFC0
FC7FFFFFFFC0
FC7FFFFFFFC0
FC7FFFFFFFC0
FC7FFFFFFFC0
FC7FFFFFFFC0
FC7FFFFFFFC0
FC7FFFFFFFC0
FC7FFFFFFFC0
FE7FFFFFFFC0
FFFFFFFFFFC0
FFFFFFFFFFC0
FFFFFFFFFFC0
FFFFFFFFFFC0
7FFFFFFFFFC0
3FFFFFFFFFC0
3FFFFFFFFFC0
1FFFFFFFFFC0
1FFFFFFFFFC0
0FFFFFFFFFC0
07FFFFFFFFC0
07FFFFFFFFC0
03FFFFFFFFC0
01FFFFFFFFC0
01FFFFFFFFC0
00FFFFFFFFC0
007FFFFFFFC0
007FFFFFFF80
001FFFFFFF00
ENDCHAR
STARTCHAR 005A
ENCODING 90
SWIDTH 977 0
DWIDTH 57 0
BBX 56 57 0 -10
BITMAP
00000000000300
00000000000780
000000010007C0
000000038003C0
00000007C003E0
0000000FC003E0
0000001FC001F0
0000001FC001F0
0000003FC000F8
0000007FC1C0F8
000000FFC1E0F8
000001FFC1E0FC
000003FFC1F07C
000007FFC1F07C
00000FFFC1F07C
00001FFFC0F87E
00003FFFC0F87E
00007FFFC0F83E
3FFFFFFFC0F83E
FFFFFFFFC0FC3F
FFFFFFFFC07C3F
FFFFFFFFC07C3F
FFFFFFFFC07C3F
FFFFFFFFC07C3F
FFFFFFFFC07C3F
FFFFFFFFC07C3F
FFFFFFFFC07C1F
FFFFFFFFC07C1F
FFFFFFFFC07C1F
FFFFFFFFC07C1F
FFFFFFFFC07C1F
FFFFFFFFC07C3F
FFFFFFFFC07C3F
FFFFFFFFC07C3F
FFFFFFFFC07C3F
FFFFFFFFC07C3F
FFFFFFFFC07C3F
FFFFFFFFC0F83E
FFFFFFFFC0F83E
FFFFFFFFC0F83E
0000FFFFC0F87E
00007FFFC0F07E
00003FFFC1F07C
00001FFFC1F07C
00000FFFC1E07C
000007FFC1E0F8
000003FFC3E0F8
000001FFC1C0F8
000001FFC081F0
000000FFC001F0
0000007FC001F0
0000003FC003E0
0000001FC003E0
0000000FC007C0
00000007C007C0
00000003C00780
00000001800100
ENDCHAR
STARTCHAR 005B
ENCODING 91
SWIDTH 977 0
DWIDTH 57 0
BBX 55 55 1 -9
BITMAP
80000000000000
E0000000000000
F8000000000000
FE000000000000
FF800000000000
FFE00000000000
FFF80000000000
FFFE0000000000
FFFF8000000000
FFFFE000000000
FFFFF800000000
FFFFFE00000000
FFFFFF80000000
FFFFFFE0000000
FFFFFFF8000000
FFFFFFFE000000
FFFFFFFF800000
FFFFFFFFE00000
FFFFFFFFF80000
FFFFFFFFFE0000
FFFFFFFFFF8000
FFFFFFFFFFE000
FFFFFFFFFFF800
FFFFFFFFFFFE00
FFFFFFFFFFFF80
FFFFFFFFFFFFE0
FFFFFFFFFFFFF8
FFFFFFFFFFFFFE
FFFFFFFFFFFFF8
FFFFFFFFFFFFE0
FFFFFFFFFFFF80
FFFFFFFFFFFE00
FFFFFFFFFFF800
FFFFFFFFFFE000
FFFFFFFFFF8000
FFFFFFFFFE0000
FFFFFFFFF80000
FFFFFFFFE00000
FFFFFFFF800000
FFFFFFFE000000
FFFFFFF8000000
FFFFFFE0000000
FFFFFF80000000
FFFFFE00000000
FFFFF800000000
FFFFE000000000
FFFF8000000000
FFFE0000000000
FFF80000000000
FFE00000000000
FF800000000000
FE000000000000
F8000000000000
E0000000000000
80000000000000
ENDCHAR
STARTCHAR 005C
ENCODING 92
SWIDTH 977 0
DWIDTH 57 0
BBX 56 55 0 -9
BITMAP
FFFFFFFFFFFFFF
7FFFFFFFFFFFFE
3FFFFFFFFFFFFE
3FFFFFFFFFFFFC
1FFFFFFFFFFFFC
1FFFFFFFFFFFF8
0FFFFFFFFFFFF8
0FFFFFFFFFFFF0
07FFFFFFFFFFF0
07FFFFFFFFFFE0
03FFFFFFFFFFE0
03FFFFFFFFFFC0
01FFFFFFFFFFC0
01FFFFFFFFFF80
00FFFFFFFFFF80
00FFFFFFFFFF00
007FFFFFFFFF00
007FFFFFFFFE00
003FFFFFFFFE00
003FFFFFFFFC00
001FFFFFFFFC00
001FFFFFFFF800
000FFFFFFFF800
000FFFFFFFF000
0007FFFFFFF000
0007FFFFFFE000
0003FFFFFFE000
0003FFFFFFC000
0001FFFFFFC000
0001FFFFFF8000
0000FFFFFF8000
0000FFFFFF0000
00007FFFFF0000
00007FFFFE0000
00003FFFFE0000
00003FFFFC0000
00001FFFFC0000
00001FFFF80000
00000FFFF80000
00000FFFF00000
000007FFF00000
000007FFE00000
000003FFE00000
000003FFC00000
000001FFC00000
000001FF800000
000000FF800000
000000FF000000
0000007F000000
0000007E000000
0000003E000000
0000003C000000
0000001C000000
00000018000000
00000008000000
ENDCHAR
STARTCHAR 005D
ENCODING 93
SWIDTH 977 0
DWIDTH 57 0
BBX 55 55 1 -9
BITMAP
00000000000002
0000000000000E
0000000000003E
000000000000FE
000000000003FE
00000000000FFE
00000000003FFE
0000000000FFFE
0000000003FFFE
000000000FFFFE
000000003FFFFE
00000000FFFFFE
00000003FFFFFE
0000000FFFFFFE
0000003FFFFFFE
000000FFFFFFFE
000003FFFFFFFE
00000FFFFFFFFE
00003FFFFFFFFE
0000FFFFFFFFFE
0003FFFFFFFFFE
000FFFFFFFFFFE
003FFFFFFFFFFE
00FFFFFFFFFFFE
03FFFFFFFFFFFE
0FFFFFFFFFFFFE
3FFFFFFFFFFFFE
FFFFFFFFFFFFFE
7FFFFFFFFFFFFE
1FFFFFFFFFFFFE
07FFFFFFFFFFFE
01FFFFFFFFFFFE
007FFFFFFFFFFE
001FFFFFFFFFFE
0007FFFFFFFFFE
0001FFFFFFFFFE
00007FFFFFFFFE
00001FFFFFFFFE
000007FFFFFFFE
000001FFFFFFFE
0000007FFFFFFE
0000001FFFFFFE
00000007FFFFFE
00000001FFFFFE
000000007FFFFE
000000001FFFFE
0000000007FFFE
0000000001FFFE
00000000007FFE
00000000001FFE
000000000007FE
000000000001FE
0000000000007E
0000000000001E
00000000000006
ENDCHAR
STARTCHAR 005E
ENCODING 94
SWIDTH 977 0
DWIDTH 57 0
BBX 55 20 1 8
BITMAP
00800000000400
00800000000200
01800000000300
03000000000380
070000000001C0
0F0000000001E0
1E0000000001F0
3FFFFFFFFFFFF8
7FFFFFFFFFFFFC
FFFFFFFFFFFFFE
FFFFFFFFFFFFFC
7FFFFFFFFFFFF8
3E0000000000F0
1E0000000001E0
0F0000000001C0
07000000000180
03000000000300
01800000000200
00800000000400
00400000000400
ENDCHAR
STARTCHAR 005F
ENCODING 95
SWIDTH 977 0
DWIDTH 57 0
BBX 21 59 18 -11
BITMAP
002000
007000
00F800
01FC00
03FE00
07FF00
0FFF80
1FFFC0
3CF9E0
60F830
80F808
00F800
00F800
00F800
00F800
00F800
00F800
00F800
00F800
00F800
00F800
00F800
00F800
00F800
00F800
00F800
00F800
00F800
00F800
00F800
00F800
00F800
00F800
00F800
00F800
00F800
00F800
00F800
00F800
00F800
00F800
00F800
00F800
00F800
00F800
00F800
00F800
00F800
00F808
C0F830
78F9E0
3FFFC0
1FFF80
0FFF00
07FE00
03FC00
01F800
00F000
006000
ENDCHAR
STARTCHAR 0060
ENCODING 96
SWIDTH 977 0
DWIDTH 57 0
BBX 21 59 18 -11
BITMAP
00F800
00F800
00F800
00F800
00F800
00F800
00F800
00F800
00F800
00F800
00F800
00F800
00F800
00F800
00F800
00F800
00F800
00F800
00F800
00F800
00F800
00F800
00F800
00F800
00F800
00F800
00F800
00F800
00F800
00F800
00F800
00F800
00F800
00F800
00F800
00F800
00F800
00F800
00F800
00F800
00F800
00F800
00F800
00F800
00F800
00F800
00F800
00F800
00F800
C0F818
38F8E0
1FFFC0
0FFF80
07FF00
03FE00
01FC00
00F800
007000
002000
ENDCHAR
STARTCHAR 0061
ENCODING 97
SWIDTH 977 0
DWIDTH 57 0
BBX 56 32 0 3
BITMAP
00000000000100
00000000000100
00000000000100
00000000000380
00003FFE000780
0000FFFFC00780
0003FFFFF00F80
0007FFFFFC0FC0
001FFFFFFF1FC0
003FFFFFFFBFC0
007FFFFFFFFFC0
00FFFFFFFFFFE0
00FFFFFFFFFFE0
01FFFFFFFFFFE0
03FFFFFFFFFFF0
07FFFFFFFFFFF0
07FC007FFFFFF0
0FF0000FFFFFF0
0F800003FFFFF8
1F000001FFFFF8
1C0000007FFFF8
38000000FFFFF8
20000001FFFFFC
40000003FFFFFC
80000003FFFFFC
00000007FFFFFE
0000000FFFFFFE
0000001FFFFFFE
0000003FFFFFFE
0000007FFFFFFF
0000007FFFFFFF
000001FFFFFFFF
ENDCHAR
STARTCHAR 0062
ENCODING 98
SWIDTH 977 0
DWIDTH 57 0
BBX 55 31 1 3
BITMAP
00800000000000
00800000000000
00C00000000000
01C0001FF00000
01E001FFFE0000
01F007FFFF8000
03F03FFFFFC000
03F87FFFFFF000
03F9FFFFFFF800
03FFFFFFFFFC00
07FFFFFFFFFE00
07FFFFFFFFFF00
07FFFFFFFFFF00
07FFFFFFFFFF80
0FFFFFFFFFFFC0
0FFFFFFE00FFC0
0FFFFFF8001FE0
1FFFFFC00003F0
1FFFFF800001F0
1FFFFE00000078
1FFFFE00000038
3FFFFF0000000C
3FFFFF80000004
3FFFFFC0000002
3FFFFFE0000000
7FFFFFF0000000
7FFFFFF8000000
7FFFFFF8000000
FFFFFFFC000000
FFFFFFFE000000
FFFFFFFF000000
ENDCHAR
STARTCHAR 0063
ENCODING 99
SWIDTH 977 0
DWIDTH 57 0
BBX 55 59 1 -11
BITMAP
000001FF800000
000003FFC00000
000007FFC00000
000007FFC00000
000007FFC00000
000007FFC00000
000007FFC00000
000007FFC00000
000007FFC00000
000007FFC00000
000007FFC00000
000007FFC00000
000007FFC00000
000007FFC00000
000007FFC00000
000007FFC00000
000007FFC00000
000007FFC00000
000007FFC00000
000007FFC00000
000007FFC00000
000007FFC00000
000007FFC00000
000007FFC00000
000007FFC00000
000007FFC00000
000007FFC00000
7E0007FFC001F8
FFC007FFC007FC
FFF007FFC01FFE
FFFC07FFC07FFE
FFFF07FFC1FFFE
FFFFC7FFC7FFFE
FFFFF7FFDFFFFC
FFFFFFFFFFFFFC
7FFFFFFFFFFFF8
3FFFFFFFFFFFF0
1FFFFFFFFFFFE0
0FFFFFFFFFFFC0
07FFFFFFFFFF80
03FFFFFFFFFF00
01FFFFFFFFFE00
00FFFFFFFFFC00
007FFFFFFFF800
003FFFFFFFF000
001FFFFFFFE000
000FFFFFFFC000
0007FFFFFF8000
0003FFFFFF0000
0001FFFFFE0000
0000FFFFFC0000
00007FFFF80000
00003FFFF00000
00001FFFE00000
00000FFFC00000
000007FF800000
000003FF000000
000001FE000000
0000007C000000
ENDCHAR
STARTCHAR 0064
ENCODING 100
SWIDTH 977 0
DWIDTH 57 0
BBX 55 55 1 -9
BITMAP
00000000001E00
00000000003F80
00000000007FC0
0000000000FFE0
0000000001FFF0
0200000003FFF8
1F80000007FFFC
3FC000000FFFFC
7FC000001FFFFE
FFE000003FFFFE
FFE000007FFFFE
FFF00000FFFFFC
FFF00001FFFFF8
FFF80003FFFFF0
FFF80007FFFFE0
FFF8000FFFFFC0
FFFC001FFFFF80
FFFC003FFFFF00
FFFC007FFFFE00
FFFE00FFFFFC00
FFFE01FFFFF800
FFFE03FFFFF000
FFFF07FFFFE000
FFFF0FFFFFC000
FFFF1FFFFF8000
FFFFBFFFFF0000
FFFFFFFFFE0000
FFFFFFFFFC0000
FFFFFFFFF80000
FFFFFFFFF00000
FFFFFFFFE00000
FFFFFFFFC00000
FFFFFFFF800000
FFFFFFFF000000
FFFFFFFE000000
FFFFFFFC000000
FFFFFFF8000000
FFFFFFF0000000
FFFFFFFC000000
FFFFFFFF800000
FFFFFFFFF00000
FFFFFFFFFE0000
FFFFFFFFFFC000
FFFFFFFFFFF800
FFFFFFFFFFFE00
FFFFFFFFFFFF00
FFFFFFFFFFFF80
FFFFFFFFFFFFC0
FFFFFFFFFFFFC0
FFFFFFFFFFFFC0
FFFFFFFFFFFF80
7FFFFFFFFFFF80
7FFFFFFFFFFF00
3FFFFFFFFFFE00
0FFFFFFFFFFC00
ENDCHAR
STARTCHAR 0065
ENCODING 101
SWIDTH 977 0
DWIDTH 57 0
BBX 55 55 1 -9
BITMAP
01E00000000000
03F80000000000
07FC0000000000
0FFE0000000000
1FFF0000000000
3FFF8000000100
7FFFC0000003F0
FFFFE0000007F8
FFFFF000000FFC
FFFFF800000FFC
FFFFFC00001FFE
FFFFFE00001FFE
7FFFFF00003FFE
3FFFFF80003FFE
1FFFFFC0003FFE
0FFFFFE0007FFE
07FFFFF0007FFE
03FFFFF8007FFE
01FFFFFC00FFFE
00FFFFFE00FFFE
007FFFFF00FFFE
003FFFFF81FFFE
001FFFFFC1FFFE
000FFFFFE1FFFE
0007FFFFF3FFFE
0003FFFFFBFFFE
0001FFFFFFFFFE
0000FFFFFFFFFE
00007FFFFFFFFE
00003FFFFFFFFE
00001FFFFFFFFE
00000FFFFFFFFE
000007FFFFFFFE
000003FFFFFFFE
000001FFFFFFFE
000000FFFFFFFE
0000007FFFFFFE
0000003FFFFFFE
000000FFFFFFFE
000003FFFFFFFE
00001FFFFFFFFE
0001FFFFFFFFFE
000FFFFFFFFFFE
003FFFFFFFFFFE
00FFFFFFFFFFFE
03FFFFFFFFFFFE
07FFFFFFFFFFFE
07FFFFFFFFFFFE
07FFFFFFFFFFFE
07FFFFFFFFFFFE
07FFFFFFFFFFFC
03FFFFFFFFFFFC
03FFFFFFFFFFF8
01FFFFFFFFFFF0
007FFFFFFFFFE0
ENDCHAR
STARTCHAR 0066
ENCODING 102
SWIDTH 977 0
DWIDTH 57 0
BBX 56 52 0 -7
BITMAP
000000F8000000
000001FC000000
000003FE000000
000007FE000000
00000FFE000000
00001FFE000000
00003FFC000000
00007FFC000000
0000FFFC000000
0001FFF8000000
0003FFF8000000
0007FFF0000000
000FFFF0000000
001FFFE0000000
003FFFE0000000
007FFFC0000000
00FFFFC0000000
01FFFF80000000
03FFFF80000000
07FFFF00000000
0FFFFFFFFFFFFC
1FFFFFFFFFFFFE
3FFFFFFFFFFFFF
7FFFFFFFFFFFFF
7FFFFFFFFFFFFF
FFFFFFFFFFFFFF
FFFFFFFFFFFFFF
7FFFFFFFFFFFFF
7FFFFFFFFFFFFF
3FFFFFFFFFFFFF
3FFFFFFFFFFFFF
1FFFFFFFFFFFFE
0FFFFFFFFFFFFC
07FFFF80000000
03FFFF80000000
01FFFFC0000000
00FFFFC0000000
007FFFE0000000
003FFFE0000000
001FFFF0000000
000FFFF0000000
0007FFF8000000
0003FFF8000000
0001FFFC000000
0000FFFC000000
00007FFC000000
00003FFE000000
00001FFE000000
00000FFE000000
000007FE000000
000003FC000000
000000F8000000
ENDCHAR
STARTCHAR 0067
ENCODING 103
SWIDTH 977 0
DWIDTH 57 0
BBX 56 52 0 -7
BITMAP
0000001F800000
0000003FC00000
0000003FE00000
0000003FF00000
0000003FF80000
0000003FFC0000
0000003FFE0000
0000001FFF0000
0000001FFF8000
0000000FFFC000
0000000FFFE000
00000007FFF000
00000007FFF800
00000003FFFC00
00000003FFFE00
00000001FFFF00
00000001FFFF80
00000000FFFFC0
00000000FFFFE0
000000007FFFF0
3FFFFFFFFFFFF8
7FFFFFFFFFFFFC
7FFFFFFFFFFFFE
FFFFFFFFFFFFFF
FFFFFFFFFFFFFF
FFFFFFFFFFFFFF
FFFFFFFFFFFFFF
FFFFFFFFFFFFFF
FFFFFFFFFFFFFE
7FFFFFFFFFFFFE
7FFFFFFFFFFFFC
3FFFFFFFFFFFF8
00000000FFFFF0
00000000FFFFE0
00000001FFFFC0
00000001FFFF80
00000003FFFF00
00000003FFFE00
00000007FFFC00
00000007FFF800
0000000FFFF000
0000000FFFE000
0000001FFFC000
0000001FFF8000
0000003FFF0000
0000003FFE0000
0000003FFC0000
0000003FF80000
0000003FF00000
0000003FE00000
0000001FC00000
00000002000000
ENDCHAR
STARTCHAR 0068
ENCODING 104
SWIDTH 977 0
DWIDTH 57 0
BBX 55 59 1 -11
BITMAP
0000007C000000
000001FE000000
000003FF000000
000007FF800000
00000FFFC00000
00001FFFE00000
00003FFFF00000
00007FFFF80000
0000FFFFFC0000
0001FFFFFE0000
0003FFFFFF0000
0007FFFFFF8000
000FFFFFFFC000
001FFFFFFFE000
003FFFFFFFF000
007FFFFFFFF800
00FFFFFFFFFC00
01FFFFFFFFFE00
03FFFFFFFFFF00
07FFFFFFFFFF80
0FFFFFFFFFFFC0
1FFFFFFFFFFFE0
3FFFFFFFFFFFF0
7FFFFFFFFFFFF8
7FFFFFFFFFFFFC
FFFFF7FFFFFFFE
FFFFC7FFE7FFFE
FFFF07FFE1FFFE
FFFC07FFE07FFE
FFF007FFE01FFE
FFC007FFE007FC
7F0007FFE001FC
000007FFE00000
000007FFE00000
000007FFE00000
000007FFE00000
000007FFE00000
000007FFE00000
000007FFE00000
000007FFE00000
000007FFE00000
000007FFE00000
000007FFE00000
000007FFE00000
000007FFE00000
000007FFE00000
000007FFE00000
000007FFE00000
000007FFE00000
000007FFE00000
000007FFE00000
000007FFE00000
000007FFE00000
000007FFE00000
000007FFE00000
000007FFE00000
000007FFC00000
000003FFC00000
000003FF800000
ENDCHAR
STARTCHAR 0069
ENCODING 105
SWIDTH 977 0
DWIDTH 57 0
BBX 56 57 0 -10
BITMAP
03FFFFFFFFFC00
1FFFFFFFFFFF00
3FFFFFFFFFFF80
7FFFFFFFFFFFC0
7FFFFFFFFFFFE0
7FFFFFFFFFFFE0
FFFFFFFFFFFFE0
FFFFFFFFFFFFE0
FFFFFFFFFFFFE0
FFFFFFFFFFFFC0
FFFFFFFFFFFF80
FFFFFFFFFFFE00
FFFFFFFFFFF800
FFFFFFFFFFE000
FFFFFFFFFF0000
FFFFFFFFF80000
FFFFFFFFC00000
FFFFFFFE000000
FFFFFFF8000000
FFFFFFFC000000
FFFFFFFE000000
FFFFFFFF000000
FFFFFFFF800000
FFFFFFFFC00000
FFFFFFFFE00000
FFFFFFFFF00000
FFFFFFFFF80000
FFFFFFFFFC0000
FFFFFFFFFE0000
FFFFFFFFFF0000
FFFFFFFFFF8000
FFFF9FFFFFC000
FFFF8FFFFFE000
FFFF87FFFFF000
FFFF03FFFFF800
FFFF01FFFFFC00
FFFF00FFFFFE00
FFFE007FFFFF00
FFFE003FFFFF80
FFFE001FFFFFC0
FFFC000FFFFFE0
FFFC0007FFFFF0
FFFC0003FFFFF8
FFF80001FFFFFC
FFF80000FFFFFE
FFF800007FFFFF
7FF000003FFFFF
7FF000001FFFFF
3FE000000FFFFF
1FC0000007FFFF
0F80000003FFFE
0000000001FFFC
0000000000FFF8
00000000007FF0
00000000003FE0
00000000001FC0
00000000000700
ENDCHAR
STARTCHAR 006A
ENCODING 106
SWIDTH 977 0
DWIDTH 57 0
BBX 55 57 1 -10
BITMAP
007FFFFFFFFFC0
01FFFFFFFFFFF0
03FFFFFFFFFFF8
07FFFFFFFFFFFC
07FFFFFFFFFFFE
07FFFFFFFFFFFE
0FFFFFFFFFFFFE
0FFFFFFFFFFFFE
07FFFFFFFFFFFE
07FFFFFFFFFFFE
01FFFFFFFFFFFE
00FFFFFFFFFFFE
003FFFFFFFFFFE
0007FFFFFFFFFE
0000FFFFFFFFFE
00001FFFFFFFFE
000003FFFFFFFE
0000007FFFFFFE
0000003FFFFFFE
0000007FFFFFFE
000000FFFFFFFE
000001FFFFFFFE
000003FFFFFFFE
000007FFFFFFFE
00000FFFFFFFFE
00001FFFFFFFFE
00003FFFFFFFFE
00007FFFFFFFFE
0000FFFFFFFFFE
0001FFFFFFFFFE
0003FFFFFBFFFE
0007FFFFF3FFFE
000FFFFFE1FFFE
001FFFFFC1FFFE
003FFFFF81FFFE
007FFFFF00FFFE
00FFFFFE00FFFE
01FFFFFC00FFFE
03FFFFF8007FFE
07FFFFF0007FFE
0FFFFFE0007FFE
1FFFFFC0003FFE
3FFFFF80003FFE
7FFFFF00003FFE
FFFFFE00001FFE
FFFFFC00001FFE
FFFFF800000FFE
FFFFF000000FFC
FFFFE0000007FC
FFFFC0000003F8
7FFF80000001E0
3FFF0000000000
1FFE0000000000
0FFC0000000000
07F80000000000
03F00000000000
00C00000000000
ENDCHAR
STARTCHAR 006B
ENCODING 107
SWIDTH 977 0
DWIDTH 57 0
BBX 56 49 0 -6
BITMAP
00000001000000
00000001800000
00000001C00000
00000001E00000
00000001F00000
00000001F80000
00000001FC0000
00000001FE0000
00000001FF0000
00000001FF8000
00000001FFC000
00000001FFE000
000001FFFFF000
00007FFFFFF800
0003FFFFFFFC00
000FFFFFFFFE00
003FFFFFFFFF00
007FFFFFFFFF80
00FFFFFFFFFFC0
01FFFFFFFFFFE0
03FFFFFFFFFFF0
07FFFFFFFFFFF8
0FFFFFFFFFFFFC
0FFFFFFFFFFFFE
1FFFFFFFFFFFFF
1FFFFFFFFFFFFF
3FFFFFFFFFFFFC
3FFFE00FFFFFF0
3FFF000FFFFFC0
3FFC000FFFFF80
7FF0000FFFFE00
7FE0000FFFF800
7FC0000FFFF000
7F80001FFFC000
7F00001FFF0000
7E00001FFC0000
7E00001FF80000
FC00001FE00000
F800001F800000
F800003E000000
F000003C000000
F0000030000000
60000020000000
60000000000000
40000000000000
40000000000000
40000000000000
40000000000000
40000000000000
ENDCHAR
STARTCHAR 006C
ENCODING 108
SWIDTH 1062 0
DWIDTH 62 0
BBX 62 53 0 -8
BITMAP
0000001000000000
0000003000000000
0000007000000000
000000F000000000
000001F000000000
000003F000000000
000007F000000000
00000FF000000000
00001FF000000000
00003FF000000000
00007FF000000000
0000FFF000000000
0001FFF000000000
0003FFFFFE000000
0007FFFFFFF00000
000FFFFFFFFE0000
001FFFFFFFFF8000
003FFFFFFFFFE000
007FFFFFFFFFF000
00FFFFFFFFFFF800
01FFFFFFFFFFFC00
03FFFFFFFFFFFE00
07FFFFFFFFFFFF00
0FFFFFFFFFFFFF80
1FFFFFFFFFFFFFC0
3FFFFFFFFFFFFFC0
7FFFFFFFFFFFFFE0
FFFFFFFFFFFFFFE0
3FFFFFFFFFFFFFF0
0FFFFFFE00FFFFF0
03FFFFFE000FFFF0
00FFFFFE0003FFF8
007FFFFF0000FFF8
001FFFFF00007FF8
0007FFFF00001FF8
0001FFFF00000FF8
0000FFFF000007FC
00003FFF000007FC
00000FFF800003FC
000003FF800001FC
000001FF800000FC
0000007F800000FC
0000001F8000007C
0000000F8000007C
00000003C000003C
00000000C000003C
000000004000001C
000000000000001C
000000000000000C
000000000000000C
000000000000000C
0000000000000004
0000000000000004
ENDCHAR
STARTCHAR 006D
ENCODING 109
SWIDTH 977 0
DWIDTH 57 0
BBX 49 59 4 -11
BITMAP
0003FFFFC00000
0003FFFFC00000
0003FFFFC00000
0003FFFFC00000
0003FFFFC00000
0003FFFFC00000
0003FFFFC00000
0003FFFFC00000
0003FFFFC00000
0003FFFFC00000
0003FFFFC00000
0003FFFFC00000
0003FFFFC00000
0003FFFFC00000
0003FFFFC00000
0003FFFFC00000
0003FFFFC00000
0003FFFFC00000
0003FFFFC00000
0003FFFFC00000
0003FFFFC00000
0003FFFFC00000
0003FFFFC00000
0003FFFFC00000
0003FFFFC00000
0003FFFFC00000
0003FFFFC00000
0003FFFFC00000
0003FFFFC00000
0003FFFFC00000
0003FFFFC00000
0003FFFFC00000
0003FFFFC00080
FFFFFFFFFFFF00
7FFFFFFFFFFE00
3FFFFFFFFFFC00
1FFFFFFFFFFC00
0FFFFFFFFFF800
07FFFFFFFFF000
03FFFFFFFFE000
01FFFFFFFFC000
00FFFFFFFF8000
007FFFFFFF0000
003FFFFFFE0000
001FFFFFFC0000
001FFFFFF80000
000FFFFFF00000
0007FFFFE00000
0003FFFFC00000
0001FFFFC00000
0000FFFF800000
00007FFF000000
00003FFE000000
00001FFC000000
00000FF8000000
000007F0000000
000003E0000000
000001C0000000
00000180000000
ENDCHAR
STARTCHAR 006E
ENCODING 110
SWIDTH 977 0
DWIDTH 57 0
BBX 56 47 0 -5
BITMAP
00000040000000
00000080000000
00000180000000
00000380000000
00000780000000
00000F80000000
00001F80000000
00003F80000000
00007F80000000
0000FF80000000
0003FF80000000
0007FF80000000
000FFF80000000
001FFF80000000
003FFFFFFFFFFF
007FFFFFFFFFFF
00FFFFFFFFFFFF
01FFFFFFFFFFFF
03FFFFFFFFFFFF
07FFFFFFFFFFFF
0FFFFFFFFFFFFF
1FFFFFFFFFFFFF
7FFFFFFFFFFFFF
FFFFFFFFFFFFFF
7FFFFFFFFFFFFF
1FFFFFFFFFFFFF
0FFFFFFFFFFFFF
07FFFFFFFFFFFF
03FFFFFFFFFFFF
01FFFFFFFFFFFF
00FFFFFFFFFFFF
007FFFFFFFFFFF
003FFF80000000
001FFF80000000
000FFF80000000
0007FF80000000
0003FF80000000
0000FF80000000
00007F80000000
00003F80000000
00001F80000000
00000F80000000
00000780000000
00000380000000
00000180000000
00000080000000
00000040000000
ENDCHAR
STARTCHAR 006F
ENCODING 111
SWIDTH 977 0
DWIDTH 57 0
BBX 56 47 0 -5
BITMAP
00000001000000
00000001000000
00000001800000
00000001C00000
00000001F00000
00000001F80000
00000001FC0000
00000001FE0000
00000001FF0000
00000001FF8000
00000001FFC000
00000001FFE000
00000001FFF000
00000001FFF800
FFFFFFFFFFFC00
FFFFFFFFFFFE00
FFFFFFFFFFFF80
FFFFFFFFFFFFC0
FFFFFFFFFFFFE0
FFFFFFFFFFFFF0
FFFFFFFFFFFFF8
FFFFFFFFFFFFFC
FFFFFFFFFFFFFE
FFFFFFFFFFFFFF
FFFFFFFFFFFFFE
FFFFFFFFFFFFFC
FFFFFFFFFFFFF8
FFFFFFFFFFFFF0
FFFFFFFFFFFFE0
FFFFFFFFFFFFC0
FFFFFFFFFFFF80
FFFFFFFFFFFE00
00000001FFFC00
00000001FFF800
00000001FFF000
00000001FFE000
00000001FFC000
00000001FF8000
00000001FF0000
00000001FE0000
00000001FC0000
00000001F80000
00000001F00000
00000001C00000
00000001800000
00000001000000
00000001000000
ENDCHAR
STARTCHAR 0070
ENCODING 112
SWIDTH 977 0
DWIDTH 57 0
BBX 49 59 4 -11
BITMAP
00000080000000
000001C0000000
000003E0000000
000007F0000000
00000FF8000000
00001FFC000000
00003FFC000000
00007FFE000000
0000FFFF000000
0000FFFF800000
0001FFFFC00000
0003FFFFE00000
0007FFFFF00000
000FFFFFF80000
001FFFFFFC0000
003FFFFFFE0000
007FFFFFFF0000
00FFFFFFFF8000
01FFFFFFFFC000
03FFFFFFFFC000
07FFFFFFFFE000
0FFFFFFFFFF000
0FFFFFFFFFF800
1FFFFFFFFFFC00
3FFFFFFFFFFE00
7FFFFFFFFFFF00
FFFFFFFFFFFF80
0003FFFFC00000
0003FFFFC00000
0003FFFFC00000
0003FFFFC00000
0003FFFFC00000
0003FFFFC00000
0003FFFFC00000
0003FFFFC00000
0003FFFFC00000
0003FFFFC00000
0003FFFFC00000
0003FFFFC00000
0003FFFFC00000
0003FFFFC00000
0003FFFFC00000
0003FFFFC00000
0003FFFFC00000
0003FFFFC00000
0003FFFFC00000
0003FFFFC00000
0003FFFFC00000
0003FFFFC00000
0003FFFFC00000
0003FFFFC00000
0003FFFFC00000
0003FFFFC00000
0003FFFFC00000
0003FFFFC00000
0003FFFFC00000
0003FFFFC00000
0003FFFFC00000
0003FFFFC00000
ENDCHAR
STARTCHAR 0071
ENCODING 113
SWIDTH 977 0
DWIDTH 57 0
BBX 51 59 3 -11
BITMAP
00000000200000
00000000300000
00000000700000
00000000780000
00000000F80000
00000000FC0000
00000001FE0000
00000003FE0000
00000003FF0000
00000007FF0000
00000007FF8000
0000000FFF8000
0000000FFFC000
0000001FFFE000
0000003FFFE000
0000003FFFF000
FF80007FFFF000
FF80007FFFF800
FF8000FFFFF800
FF8001FFFFFC00
FF8001FFFFFE00
FF8003FFFFFE00
FF8003FFFFFF00
FF8007FFFFFF00
FF8007FFFFFF80
FF800FFFFFFFC0
FF801FFFFFFFC0
FF801FFFFFFFE0
FF800003FE0000
FF800003FE0000
FF800003FE0000
FF800003FE0000
FF800003FE0000
FF800003FE0000
FF800003FE0000
FF800003FE0000
FF800003FE0000
FF800003FE0000
FF800003FE0000
FF800003FE0000
FFC00003FE0000
FFC00003FE0000
FFC00007FE0000
FFC00007FE0000
7FE00007FE0000
7FE0000FFC0000
7FF0001FFC0000
3FF8003FFC0000
3FFE007FF80000
1FFF83FFF80000
1FFFFFFFF00000
0FFFFFFFE00000
07FFFFFFC00000
03FFFFFFC00000
01FFFFFF800000
00FFFFFE000000
007FFFFC000000
001FFFF0000000
0003FF80000000
ENDCHAR
STARTCHAR 0072
ENCODING 114
SWIDTH 977 0
DWIDTH 57 0
BBX 56 47 0 -5
BITMAP
00000040000000
000001C0000000
000003C0000000
00000FC0000000
00003FC0000000
0000FFC0000000
0001FFC0000000
0007FFC0000000
001FFFC0000000
003FFFC0000000
00FFFFC0000000
03FFFFFFFFF000
0FFFFFFFFFFC00
1FFFFFFFFFFF00
FFFFFFFFFFFF80
3FFFFFFFFFFFC0
1FFFFFFFFFFFE0
07FFFFFFFFFFF0
01FFFFFFFFFFF8
007FFFC001FFFC
003FFFC0003FFC
000FFFC0000FFE
0003FFC00007FE
0001FFC00003FE
00007FC00003FF
00001FC00001FF
000007C00001FF
000003C00001FF
000000C00001FF
000000200001FF
000000000001FF
000000000001FF
000000000001FF
000000000003FF
000000000003FE
000000000007FE
00000000000FFE
00000000003FFC
0000000003FFFC
0001FFFFFFFFF8
0001FFFFFFFFF0
0001FFFFFFFFE0
0001FFFFFFFFC0
0001FFFFFFFF80
0001FFFFFFFF00
0001FFFFFFFC00
0001FFFFFFE000
ENDCHAR
STARTCHAR 0073
ENCODING 115
SWIDTH 977 0
DWIDTH 57 0
BBX 56 44 0 -4
BITMAP
000003FFE00000
00007FFFFE0000
0003FFFFFFC000
000FFFFFFFF000
003FFFFFFFFC00
00FFFFFFFFFF00
01FFFFFFFFFF80
03FFFFFFFFFFE0
07FFFFFFFFFFF0
0FFFFFFFFFFFF8
1FFFFFFFFFFFF8
3FFFFFFFFFFFFC
3FFFFFFFFFFFFE
7FFFFFFFFFFFFE
7FFFFFFFFFFFFE
7FFFFFFFFFFFFF
7FFFFFFFFFFFFF
FFFFFFFFFFFFFF
FFFFFFFFFFFFFF
FFFFFFFFFFFFFF
FFFFFFFFFFFFFF
7FFFFFFFFFFFFF
7FFFFFFFFFFFFF
7FFFFFFFFFFFFE
3FFFFFFFFFFFFE
3FFFFFFFFFFFFC
1FFFFFFFFFFFFC
0FFFFFFFFFFFF8
0FFFFFFFFFFFF0
07FFFFFFFFFFE0
03FFFFFFFFFFC0
00FFFFFFFFFF00
007FFFFFFFFE00
001FFFFFFFF800
0007FFFFFFC000
0000FFFFFE0000
00001FFFE00000
00000FF0000000
00000FE0000000
00000FC0000000
00001F80000000
00003E00000000
0000F800000000
00010000000000
ENDCHAR
STARTCHAR 0074
ENCODING 116
SWIDTH 977 0
DWIDTH 57 0
BBX 56 47 0 -5
BITMAP
3FFFFFFFFFFFFC
7FFFFFFFFFFFFE
7FFFFFFFFFFFFF
FFFFFFFFFFFFFF
FFFFFFFFFFFFFF
FFFFFFFFFFFFFF
FFFFFFFFFFFFFF
FFFFFFFFFFFFFF
FFFFFFFFFFFFFF
FFFFFFFFFFFFFF
FFFFFFFFFFFFFF
FFFFFFFFFFFFFF
FFFFFFFFFFFFFF
FFFFFFFFFFFFFF
FFFFFFFFFFFFFF
FFFFFFFFFFFFFF
FFFFFFFFFFFFFF
FFFFFFFFFFFFFF
FFFFFFFFFFFFFF
FFFFFFFFFFFFFF
FFFFFFFFFFFFFF
FFFFFFFFFFFFFF
FFFFFFFFFFFFFF
FFFFFFFFFFFFFF
FFFFFFFFFFFFFF
FFFFFFFFFFFFFF
FFFFFFFFFFFFFF
FFFFFFFFFFFFFF
FFFFFFFFFFFFFF
FFFFFFFFFFFFFF
FFFFFFFFFFFFFF
FFFFFFFFFFFFFF
FFFFFFFFFFFFFF
FFFFFFFFFFFFFF
7FFFFFFFFFFFFF
3FFFFFFFFFFFFE
000000FF000000
000001FE000000
000001F8000000
000001F0000000
000003E0000000
000003C0000000
00000780000000
00000600000000
00000C00000000
00000800000000
00001000000000
ENDCHAR
STARTCHAR 0075
ENCODING 117
SWIDTH 977 0
DWIDTH 57 0
BBX 56 43 0 -3
BITMAP
00000FFFF00000
0000FFFFFF0000
0003FFFFFFE000
001FFFFFFFF800
003FFFFFFFFE00
00FFFFFFFFFF00
01FFFFFFFFFFC0
07FFFFFFFFFFE0
0FFFFFFFFFFFF0
0FFFFFFFFFFFF8
1FFFFFFFFFFFFC
3FFFFFFFFFFFFC
3FFFFFFFFFFFFE
7FFFFFFFFFFFFE
7FFFFFFFFFFFFF
FFFFFFFFFFFFFF
FFFFFFFFFFFFFF
FFFFFFFFFFFFFF
FFFFFFFFFFFFFF
FFFFFFFFFFFFFF
FFFFFFFFFFFFFF
7FFFFFFFFFFFFF
7FFFFFFFFFFFFF
7FFFFFFFFFFFFE
3FFFFFFFFFFFFE
3FFFFFFFFFFFFC
1FFFFFFFFFFFF8
0FFFFFFFFFFFF8
07FFFFFFFFFFF0
03FFFFFFFFFFE0
01FFFFFFFFFFC0
00FFFFFFFFFF00
003FFFFFFFFE00
000FFFFFFFF800
0003FFFFFFE000
00007FFFFF0000
000003FFF80000
00000007F00000
00000003F80000
00000001F80000
00000000FC0000
000000007E0000
000000000FC000
ENDCHAR
STARTCHAR 0076
ENCODING 118
SWIDTH 977 0
DWIDTH 57 0
BBX 56 47 0 -5
BITMAP
1FFFFFFFFFFFFC
7FFFFFFFFFFFFE
7FFFFFFFFFFFFF
FFFFFFFFFFFFFF
FFFFFFFFFFFFFF
FFFFFFFFFFFFFF
FFFFFFFFFFFFFF
FFFFFFFFFFFFFF
FFFFFFFFFFFFFF
FFFFFFFFFFFFFF
FFFFFFFFFFFFFF
FFFFFFFFFFFFFF
FFFFFFFFFFFFFF
FFFFFFFFFFFFFF
FFFFFFFFFFFFFF
FFFFFFFFFFFFFF
FFFFFFFFFFFFFF
FFFFFFFFFFFFFF
FFFFFFFFFFFFFF
FFFFFFFFFFFFFF
FFFFFFFFFFFFFF
FFFFFFFFFFFFFF
FFFFFFFFFFFFFF
FFFFFFFFFFFFFF
FFFFFFFFFFFFFF
FFFFFFFFFFFFFF
FFFFFFFFFFFFFF
FFFFFFFFFFFFFF
FFFFFFFFFFFFFF
FFFFFFFFFFFFFF
FFFFFFFFFFFFFF
FFFFFFFFFFFFFF
FFFFFFFFFFFFFF
FFFFFFFFFFFFFF
7FFFFFFFFFFFFF
3FFFFFFFFFFFFE
0000007F800000
0000003F800000
0000001F800000
0000000FC00000
00000007C00000
00000001E00000
00000000E00000
00000000700000
00000000300000
00000000180000
00000000080000
ENDCHAR
STARTCHAR 0077
ENCODING 119
SWIDTH 977 0
DWIDTH 57 0
BBX 56 56 0 -10
BITMAP
0000003E000000
000000FF000000
000000FF800000
000001FF800000
000001FFC00000
000001FFC00000
000801FFC01800
007F03FFC07E00
00FF9FFFE0FF00
01FFFFFFF9FF80
01FFFFFFFFFF80
01FFFFFFFFFFC0
01FFFFFFFFFFC0
01FFFFFFFFFF80
00FFFFFFFFFF80
00FFFFFFFFFF00
007FFFFFFFFE00
003FFFFFFFFC00
007FFFFFFFF800
007FFF80FFFC00
00FFFE003FFC00
00FFFC001FFC00
0FFFF8000FFFF8
3FFFF0000FFFFC
7FFFF00007FFFE
7FFFF00007FFFF
FFFFE00007FFFF
FFFFE00007FFFF
FFFFE00007FFFF
7FFFF00007FFFF
7FFFF00007FFFE
3FFFF0000FFFFE
1FFFF8000FFFF8
007FF8001FFC00
007FFE003FF800
007FFF007FF800
003FFFE7FFF800
001FFFFFFFFC00
003FFFFFFFFE00
007FFFFFFFFF00
00FFFFFFFFFF80
01FFFFFFFFFF80
01FFFFFFFFFFC0
01FFFFFFFFFFC0
01FFFFFFF7FF80
01FFC7FFC3FF80
00FF81FFC1FF80
007F01FFC0FF00
003E01FFC03C00
000001FFC00000
000001FFC00000
000001FFC00000
000001FF800000
000000FF800000
0000007E000000
00000008000000
ENDCHAR
STARTCHAR 0078
ENCODING 120
SWIDTH 977 0
DWIDTH 57 0
BBX 56 47 0 -5
BITMAP
00060000000000
030F0000000000
078F0000000000
07FF0000000000
07FF9000000000
03FFFC00000000
03FFFC00000000
7FFFFC00000000
FF83F800000000
FF01F000E00000
7F01F003F00000
0F01F803F81E00
0F01FE07F83F00
1F81FE03F87F80
3FC3FE03FFFF80
7FFFFC03FFFF80
7FFFE10FFFFF00
39FFC7FFFFFF00
01FFCFFFFFFE00
01FFEFFFFFFF00
01F3CFFFFFFF1C
01E08FFFFFFFFE
004007FFC0FFFF
000003FF803FFF
000001FF003FFF
000001FF001FFF
000001FE001FFE
000001FE001FF8
000007FE000FC0
00001FFE001FC0
00001FFF001FC0
00001FFF003FE0
00001FFF803FF8
00001FFFC0FFFC
00001FFFFFFFFC
0000077FFFFFFE
0000003FFFFFFC
0000001FFFFFFC
0000001FFFF8F8
0000003FFFF020
0000003FFFF800
0000003FC7F800
0000003F87F800
0000003F83F800
0000001F03F800
0000000001F000
0000000000E000
ENDCHAR
STARTCHAR 0079
ENCODING 121
SWIDTH 977 0
DWIDTH 57 0
BBX 56 49 0 -5
BITMAP
00001FE0000000
0000FFFC001E00
0001FFFF007FC0
0007FFFF81FFF0
000FFFFFC1FFFC
001FFF0033FFC0
003FFE0003FC00
007FFC0007FC00
007FFC0007FE07
00FFFC0007FFFE
00FFFE0007FFFE
01FFFF000FFFFC
03FFFF800FFFF8
1FFFFFC00FFFF0
3FF0FFE01FFFE0
7FE03FF03FFF80
FFE01FF83FFE00
7FE00FFC7FFE00
3FE003FEFFFF00
1FE001FFFFFF00
0FC000FFFFC000
0380007FFF0000
0080003FFC0000
0000003FF80000
0000007FF80000
000000FFFC0000
000003FFFE0000
000007FFFF0000
00000FFFFF8000
00001FFEFFC000
00007FFC7FE000
0000FFF83FF800
0001FFF01FFC00
0003FFE00FFE00
0007FFC007FF00
001FFF8007FF80
003FFF0003FFC0
007FFE0001FFE0
00FFFC0000FFF0
03FFF000007FF8
07FFE000003FFC
07FFC000001FFE
0FFF8000000FFF
0FFF0000000FFF
0FFE00000007FE
0FFC00000003FC
07F800000001F0
03F000000000E0
00000000000040
ENDCHAR
STARTCHAR 007A
ENCODING 122
SWIDTH 977 0
DWIDTH 57 0
BBX 56 55 0 -10
BITMAP
00000000200000
00000000400000
00000000C00000
00000001C00000
00000003C00000
00000007800000
0000000F800000
0000001F800000
0000003F800000
0000003F800000
0000003F000000
0000007F000000
0000007F000000
0000007F000000
0000007E000000
0000007E000000
000000FE000000
000000FE000000
000000FE000000
000000FC000000
000001FC000000
000001FC000003
000001FC00003E
000001FC0007FC
00FF01F800FFF8
03FFC3F80FFFF0
0FFFE3F9FFFFE0
1FFFF3FFFFFFC0
3FFFF7FFFFFF80
7F87FFFFFFFF00
7F03FFFFFFF000
7E03FFFFFE0000
FE03FFFFE00000
FE07FFFC000000
FF3FFFE0000000
7FFFEFE0000000
7FFFCFF8000000
3FFF9FFC000000
1FFF3FFC000000
0FFC7FFE000000
00C07FFE000000
0000FF7F000000
0000FE3F000000
0000FC1F000000
0001F81F000000
0001F83F000000
0001F83F000000
0001F83E000000
0001FC7E000000
0000FFFC000000
0000FFFC000000
0000FFF8000000
00007FF0000000
00003FE0000000
00001FC0000000
ENDCHAR
STARTCHAR 007B
ENCODING 123
SWIDTH 977 0
DWIDTH 57 0
BBX 56 53 0 -8
BITMAP
0000000007FF00
0000000003FC00
0000000003F800
0000000003FC00
0000000001FE00
0000000001FF00
0000000001FF80
00000000009FC0
00000000008FE0
000000000087E0
000000000003F0
000000000001F8
000000000000F8
000000000000FC
0000000000007C
0000000000007E
0000000000003E
0000000000003E
0000000000003E
0000000000001F
0000000000001F
0000000000001F
0000000000001F
0000000000001F
0000000000001F
F800000000001F
F800000000001F
7800000000001F
7C00000000001F
7C00000000001F
7C00000000003F
7C00000000003E
7E00000000003E
3E00000000003E
3E00000000007C
3F00000000007C
1F0000000000FC
1F8000000001F8
0FC000000001F8
0FE000000003F0
07E000000007E0
03F00000000FE0
01F80000001FC0
01FE0000003F80
00FF000000FF00
007FC00003FE00
003FF8000FFC00
000FFF80FFF800
0007FFFFFFE000
0001FFFFFF8000
00007FFFFE0000
00000FFFF80000
0000007F000000
ENDCHAR
STARTCHAR 007C
ENCODING 124
SWIDTH 977 0
DWIDTH 57 0
BBX 56 53 0 -8
BITMAP
007FE000000000
001FE000000000
000FE000000000
001FC000000000
007FC000000000
00FFC000000000
01FF8000000000
01FD8000000000
03F88000000000
07E08000000000
07E00000000000
0FC00000000000
1F800000000000
1F000000000000
3F000000000000
3E000000000000
3E000000000000
7E000000000000
7C000000000000
7C000000000000
7C000000000000
7C000000000000
F8000000000000
F8000000000000
F8000000000000
F800000000001F
F800000000001F
F800000000001F
7C00000000001F
7C00000000001F
7C00000000001F
7C00000000003E
7E00000000003E
3E00000000003E
3E00000000007C
3F00000000007C
1F0000000000FC
1F8000000000F8
0FC000000001F8
0FC000000003F0
07E000000007E0
03F00000000FE0
03F80000001FC0
01FE0000003F80
00FF0000007F00
007FC00001FE00
003FF0000FFC00
000FFF007FF800
0007FFFFFFF000
0001FFFFFFC000
00007FFFFF0000
00001FFFF80000
000001FF800000
ENDCHAR
STARTCHAR 007D
ENCODING 125
SWIDTH 497 0
DWIDTH 29 0
BBX 0 0 0 0
BITMAP
ENDCHAR
STARTCHAR 007E
ENCODING 126
SWIDTH 497 0
DWIDTH 29 0
BBX 0 0 0 0
BITMAP
ENDCHAR
STARTCHAR 00A0
ENCODING 160
SWIDTH 240 0
DWIDTH 14 0
BBX 0 0 0 0
BITMAP
ENDCHAR
STARTCHAR 00A1
ENCODING 161
SWIDTH 325 0
DWIDTH 19 0
BBX 0 0 0 0
BITMAP
ENDCHAR
STARTCHAR 00A2
ENCODING 162
SWIDTH 548 0
DWIDTH 32 0
BBX 0 0 0 0
BITMAP
ENDCHAR
STARTCHAR 00A3
ENCODING 163
SWIDTH 497 0
DWIDTH 29 0
BBX 0 0 0 0
BITMAP
ENDCHAR
STARTCHAR 00A4
ENCODING 164
SWIDTH 497 0
DWIDTH 29 0
BBX 0 0 0 0
BITMAP
ENDCHAR
STARTCHAR 00A5
ENCODING 165
SWIDTH 617 0
DWIDTH 36 0
BBX 0 0 0 0
BITMAP
ENDCHAR
STARTCHAR 00A6
ENCODING 166
SWIDTH 497 0
DWIDTH 29 0
BBX 0 0 0 0
BITMAP
ENDCHAR
STARTCHAR 00A7
ENCODING 167
SWIDTH 497 0
DWIDTH 29 0
BBX 0 0 0 0
BITMAP
ENDCHAR
STARTCHAR 00A8
ENCODING 168
SWIDTH 497 0
DWIDTH 29 0
BBX 0 0 0 0
BITMAP
ENDCHAR
STARTCHAR 00A9
ENCODING 169
SWIDTH 805 0
DWIDTH 47 0
BBX 0 0 0 0
BITMAP
ENDCHAR
STARTCHAR 00AA
ENCODING 170
SWIDTH 308 0
DWIDTH 18 0
BBX 0 0 0 0
BITMAP
ENDCHAR
STARTCHAR 00AB
ENCODING 171
SWIDTH 462 0
DWIDTH 27 0
BBX 0 0 0 0
BITMAP
ENDCHAR
STARTCHAR 00AC
ENCODING 172
SWIDTH 497 0
DWIDTH 29 0
BBX 0 0 0 0
BITMAP
ENDCHAR
STARTCHAR 00AD
ENCODING 173
SWIDTH 977 0
DWIDTH 57 0
BBX 56 55 0 -9
BITMAP
000007FFE00000
00003FFFFC0000
0000FFFFFF8000
0003FF80FFC000
0007F8000FF000
001FC00001F800
003F000000FE00
007E0000003F00
00F80000001F80
01F000000007C0
03F800000403C0
07FC00000E01E0
079E00001E01F0
0F0F00003E00F0
0F0780007E0078
1E03C000FE0078
1E01E001FE003C
3C00F001FE003C
3C007803FE001E
38000407FE001E
78001FFFFE000E
78003FFFFE000F
70003FFFFE000F
70003FFFFE000F
70003FFFFE000F
F0003FFFFE000F
F0003FFFFE0007
F0003FFFFE0007
F0003FFFFE0007
F0003FFFFE000F
70003FFFFE000F
70003FFFFE000F
78003FFFFE000F
78003FFFFE000F
7800000FFE000E
38000007FE001E
3C000003FE001E
3C000001FE003C
1E000001FE803C
1E000000FE4078
0F0000007E6078
0F0000003E70F0
078000001E79F0
07C000000E3DE0
03E00000041FC0
01F00000000FC0
00F80000001F80
007C0000003F00
003F0000007E00
001FC00001FC00
000FF0000FF000
0003FF00FFE000
0000FFFFFF8000
00003FFFFC0000
000007FFE00000
ENDCHAR
STARTCHAR 00AE
ENCODING 174
SWIDTH 805 0
DWIDTH 47 0
BBX 0 0 0 0
BITMAP
ENDCHAR
STARTCHAR 00AF
ENCODING 175
SWIDTH 325 0
DWIDTH 19 0
BBX 0 0 0 0
BITMAP
ENDCHAR
STARTCHAR 00B0
ENCODING 176
SWIDTH 325 0
DWIDTH 19 0
BBX 0 0 0 0
BITMAP
ENDCHAR
STARTCHAR 00B1
ENCODING 177
SWIDTH 497 0
DWIDTH 29 0
BBX 0 0 0 0
BITMAP
ENDCHAR
STARTCHAR 00B2
ENCODING 178
SWIDTH 497 0
DWIDTH 29 0
BBX 0 0 0 0
BITMAP
ENDCHAR
STARTCHAR 00B3
ENCODING 179
SWIDTH 497 0
DWIDTH 29 0
BBX 0 0 0 0
BITMAP
ENDCHAR
STARTCHAR 00B4
ENCODING 180
SWIDTH 497 0
DWIDTH 29 0
BBX 0 0 0 0
BITMAP
ENDCHAR
STARTCHAR 00B5
ENCODING 181
SWIDTH 565 0
DWIDTH 33 0
BBX 0 0 0 0
BITMAP
ENDCHAR
STARTCHAR 00B6
ENCODING 182
SWIDTH 497 0
DWIDTH 29 0
BBX 0 0 0 0
BITMAP
ENDCHAR
STARTCHAR 00B7
ENCODING 183
SWIDTH 240 0
DWIDTH 14 0
BBX 0 0 0 0
BITMAP
ENDCHAR
STARTCHAR 00B8
ENCODING 184
SWIDTH 497 0
DWIDTH 29 0
BBX 0 0 0 0
BITMAP
ENDCHAR
STARTCHAR 00B9
ENCODING 185
SWIDTH 497 0
DWIDTH 29 0
BBX 0 0 0 0
BITMAP
ENDCHAR
STARTCHAR 00BA
ENCODING 186
SWIDTH 342 0
DWIDTH 20 0
BBX 0 0 0 0
BITMAP
ENDCHAR
STARTCHAR 00BB
ENCODING 187
SWIDTH 462 0
DWIDTH 27 0
BBX 0 0 0 0
BITMAP
ENDCHAR
STARTCHAR 00BC
ENCODING 188
SWIDTH 822 0
DWIDTH 48 0
BBX 0 0 0 0
BITMAP
ENDCHAR
STARTCHAR 00BD
ENCODING 189
SWIDTH 960 0
DWIDTH 56 0
BBX 0 0 0 0
BITMAP
ENDCHAR
STARTCHAR 00BE
ENCODING 190
SWIDTH 822 0
DWIDTH 48 0
BBX 0 0 0 0
BITMAP
ENDCHAR
STARTCHAR 00BF
ENCODING 191
SWIDTH 360 0
DWIDTH 21 0
BBX 0 0 0 0
BITMAP
ENDCHAR
STARTCHAR 00C0
ENCODING 192
SWIDTH 754 0
DWIDTH 44 0
BBX 0 0 0 0
BITMAP
ENDCHAR
STARTCHAR 00C1
ENCODING 193
SWIDTH 754 0
DWIDTH 44 0
BBX 0 0 0 0
BITMAP
ENDCHAR
STARTCHAR 00C2
ENCODING 194
SWIDTH 754 0
DWIDTH 44 0
BBX 0 0 0 0
BITMAP
ENDCHAR
STARTCHAR 00C3
ENCODING 195
SWIDTH 754 0
DWIDTH 44 0
BBX 0 0 0 0
BITMAP
ENDCHAR
STARTCHAR 00C4
ENCODING 196
SWIDTH 754 0
DWIDTH 44 0
BBX 0 0 0 0
BITMAP
ENDCHAR
STARTCHAR 00C5
ENCODING 197
SWIDTH 754 0
DWIDTH 44 0
BBX 0 0 0 0
BITMAP
ENDCHAR
STARTCHAR 00C6
ENCODING 198
SWIDTH 1028 0
DWIDTH 60 0
BBX 0 0 0 0
BITMAP
ENDCHAR
STARTCHAR 00C7
ENCODING 199
SWIDTH 685 0
DWIDTH 40 0
BBX 0 0 0 0
BITMAP
ENDCHAR
STARTCHAR 00C8
ENCODING 200
SWIDTH 565 0
DWIDTH 33 0
BBX 0 0 0 0
BITMAP
ENDCHAR
STARTCHAR 00C9
ENCODING 201
SWIDTH 565 0
DWIDTH 33 0
BBX 0 0 0 0
BITMAP
ENDCHAR
STARTCHAR 00CA
ENCODING 202
SWIDTH 565 0
DWIDTH 33 0
BBX 0 0 0 0
BITMAP
ENDCHAR
STARTCHAR 00CB
ENCODING 203
SWIDTH 565 0
DWIDTH 33 0
BBX 0 0 0 0
BITMAP
ENDCHAR
STARTCHAR 00CC
ENCODING 204
SWIDTH 325 0
DWIDTH 19 0
BBX 0 0 0 0
BITMAP
ENDCHAR
STARTCHAR 00CD
ENCODING 205
SWIDTH 325 0
DWIDTH 19 0
BBX 0 0 0 0
BITMAP
ENDCHAR
STARTCHAR 00CE
ENCODING 206
SWIDTH 325 0
DWIDTH 19 0
BBX 0 0 0 0
BITMAP
ENDCHAR
STARTCHAR 00CF
ENCODING 207
SWIDTH 325 0
DWIDTH 19 0
BBX 0 0 0 0
BITMAP
ENDCHAR
STARTCHAR 00D0
ENCODING 208
SWIDTH 737 0
DWIDTH 43 0
BBX 0 0 0 0
BITMAP
ENDCHAR
STARTCHAR 00D1
ENCODING 209
SWIDTH 754 0
DWIDTH 44 0
BBX 0 0 0 0
BITMAP
ENDCHAR
STARTCHAR 00D2
ENCODING 210
SWIDTH 788 0
DWIDTH 46 0
BBX 0 0 0 0
BITMAP
ENDCHAR
STARTCHAR 00D3
ENCODING 211
SWIDTH 788 0
DWIDTH 46 0
BBX 0 0 0 0
BITMAP
ENDCHAR
STARTCHAR 00D4
ENCODING 212
SWIDTH 788 0
DWIDTH 46 0
BBX 0 0 0 0
BITMAP
ENDCHAR
STARTCHAR 00D5
ENCODING 213
SWIDTH 788 0
DWIDTH 46 0
BBX 0 0 0 0
BITMAP
ENDCHAR
STARTCHAR 00D6
ENCODING 214
SWIDTH 788 0
DWIDTH 46 0
BBX 0 0 0 0
BITMAP
ENDCHAR
STARTCHAR 00D7
ENCODING 215
SWIDTH 497 0
DWIDTH 29 0
BBX 0 0 0 0
BITMAP
ENDCHAR
STARTCHAR 00D8
ENCODING 216
SWIDTH 788 0
DWIDTH 46 0
BBX 0 0 0 0
BITMAP
ENDCHAR
STARTCHAR 00D9
ENCODING 217
SWIDTH 737 0
DWIDTH 43 0
BBX 0 0 0 0
BITMAP
ENDCHAR
STARTCHAR 00DA
ENCODING 218
SWIDTH 737 0
DWIDTH 43 0
BBX 0 0 0 0
BITMAP
ENDCHAR
STARTCHAR 00DB
ENCODING 219
SWIDTH 737 0
DWIDTH 43 0
BBX 0 0 0 0
BITMAP
ENDCHAR
STARTCHAR 00DC
ENCODING 220
SWIDTH 737 0
DWIDTH 43 0
BBX 0 0 0 0
BITMAP
ENDCHAR
STARTCHAR 00DD
ENCODING 221
SWIDTH 600 0
DWIDTH 35 0
BBX 0 0 0 0
BITMAP
ENDCHAR
STARTCHAR 00DE
ENCODING 222
SWIDTH 548 0
DWIDTH 32 0
BBX 0 0 0 0
BITMAP
ENDCHAR
STARTCHAR 00DF
ENCODING 223
SWIDTH 600 0
DWIDTH 35 0
BBX 0 0 0 0
BITMAP
ENDCHAR
STARTCHAR 00E0
ENCODING 224
SWIDTH 445 0
DWIDTH 26 0
BBX 0 0 0 0
BITMAP
ENDCHAR
STARTCHAR 00E1
ENCODING 225
SWIDTH 445 0
DWIDTH 26 0
BBX 0 0 0 0
BITMAP
ENDCHAR
STARTCHAR 00E2
ENCODING 226
SWIDTH 445 0
DWIDTH 26 0
BBX 0 0 0 0
BITMAP
ENDCHAR
STARTCHAR 00E3
ENCODING 227
SWIDTH 445 0
DWIDTH 26 0
BBX 0 0 0 0
BITMAP
ENDCHAR
STARTCHAR 00E4
ENCODING 228
SWIDTH 445 0
DWIDTH 26 0
BBX 0 0 0 0
BITMAP
ENDCHAR
STARTCHAR 00E5
ENCODING 229
SWIDTH 445 0
DWIDTH 26 0
BBX 0 0 0 0
BITMAP
ENDCHAR
STARTCHAR 00E6
ENCODING 230
SWIDTH 702 0
DWIDTH 41 0
BBX 0 0 0 0
BITMAP
ENDCHAR
STARTCHAR 00E7
ENCODING 231
SWIDTH 445 0
DWIDTH 26 0
BBX 0 0 0 0
BITMAP
ENDCHAR
STARTCHAR 00E8
ENCODING 232
SWIDTH 445 0
DWIDTH 26 0
BBX 0 0 0 0
BITMAP
ENDCHAR
STARTCHAR 00E9
ENCODING 233
SWIDTH 445 0
DWIDTH 26 0
BBX 0 0 0 0
BITMAP
ENDCHAR
STARTCHAR 00EA
ENCODING 234
SWIDTH 445 0
DWIDTH 26 0
BBX 0 0 0 0
BITMAP
ENDCHAR
STARTCHAR 00EB
ENCODING 235
SWIDTH 445 0
DWIDTH 26 0
BBX 0 0 0 0
BITMAP
ENDCHAR
STARTCHAR 00EC
ENCODING 236
SWIDTH 257 0
DWIDTH 15 0
BBX 0 0 0 0
BITMAP
ENDCHAR
STARTCHAR 00ED
ENCODING 237
SWIDTH 257 0
DWIDTH 15 0
BBX 0 0 0 0
BITMAP
ENDCHAR
STARTCHAR 00EE
ENCODING 238
SWIDTH 257 0
DWIDTH 15 0
BBX 0 0 0 0
BITMAP
ENDCHAR
STARTCHAR 00EF
ENCODING 239
SWIDTH 257 0
DWIDTH 15 0
BBX 0 0 0 0
BITMAP
ENDCHAR
STARTCHAR 00F0
ENCODING 240
SWIDTH 548 0
DWIDTH 32 0
BBX 0 0 0 0
BITMAP
ENDCHAR
STARTCHAR 00F1
ENCODING 241
SWIDTH 531 0
DWIDTH 31 0
BBX 0 0 0 0
BITMAP
ENDCHAR
STARTCHAR 00F2
ENCODING 242
SWIDTH 497 0
DWIDTH 29 0
BBX 0 0 0 0
BITMAP
ENDCHAR
STARTCHAR 00F3
ENCODING 243
SWIDTH 497 0
DWIDTH 29 0
BBX 0 0 0 0
BITMAP
ENDCHAR
STARTCHAR 00F4
ENCODING 244
SWIDTH 497 0
DWIDTH 29 0
BBX 0 0 0 0
BITMAP
ENDCHAR
STARTCHAR 00F5
ENCODING 245
SWIDTH 497 0
DWIDTH 29 0
BBX 0 0 0 0
BITMAP
ENDCHAR
STARTCHAR 00F6
ENCODING 246
SWIDTH 497 0
DWIDTH 29 0
BBX 0 0 0 0
BITMAP
ENDCHAR
STARTCHAR 00F7
ENCODING 247
SWIDTH 497 0
DWIDTH 29 0
BBX 0 0 0 0
BITMAP
ENDCHAR
STARTCHAR 00F8
ENCODING 248
SWIDTH 497 0
DWIDTH 29 0
BBX 0 0 0 0
BITMAP
ENDCHAR
STARTCHAR 00F9
ENCODING 249
SWIDTH 514 0
DWIDTH 30 0
BBX 0 0 0 0
BITMAP
ENDCHAR
STARTCHAR 00FA
ENCODING 250
SWIDTH 514 0
DWIDTH 30 0
BBX 0 0 0 0
BITMAP
ENDCHAR
STARTCHAR 00FB
ENCODING 251
SWIDTH 514 0
DWIDTH 30 0
BBX 0 0 0 0
BITMAP
ENDCHAR
STARTCHAR 00FC
ENCODING 252
SWIDTH 514 0
DWIDTH 30 0
BBX 0 0 0 0
BITMAP
ENDCHAR
STARTCHAR 00FD
ENCODING 253
SWIDTH 428 0
DWIDTH 25 0
BBX 0 0 0 0
BITMAP
ENDCHAR
STARTCHAR 00FE
ENCODING 254
SWIDTH 497 0
DWIDTH 29 0
BBX 0 0 0 0
BITMAP
ENDCHAR
STARTCHAR 00FF
ENCODING 255
SWIDTH 428 0
DWIDTH 25 0
BBX 0 0 0 0
BITMAP
ENDCHAR
STARTCHAR 0131
ENCODING 305
SWIDTH 257 0
DWIDTH 15 0
BBX 0 0 0 0
BITMAP
ENDCHAR
STARTCHAR 02C6
ENCODING 710
SWIDTH 497 0
DWIDTH 29 0
BBX 0 0 0 0
BITMAP
ENDCHAR
STARTCHAR 02C7
ENCODING 711
SWIDTH 497 0
DWIDTH 29 0
BBX 0 0 0 0
BITMAP
ENDCHAR
STARTCHAR 02C9
ENCODING 713
SWIDTH 497 0
DWIDTH 29 0
BBX 0 0 0 0
BITMAP
ENDCHAR
STARTCHAR 02D8
ENCODING 728
SWIDTH 497 0
DWIDTH 29 0
BBX 0 0 0 0
BITMAP
ENDCHAR
STARTCHAR 02D9
ENCODING 729
SWIDTH 497 0
DWIDTH 29 0
BBX 0 0 0 0
BITMAP
ENDCHAR
STARTCHAR 02DA
ENCODING 730
SWIDTH 497 0
DWIDTH 29 0
BBX 0 0 0 0
BITMAP
ENDCHAR
STARTCHAR 02DB
ENCODING 731
SWIDTH 497 0
DWIDTH 29 0
BBX 0 0 0 0
BITMAP
ENDCHAR
STARTCHAR 02DC
ENCODING 732
SWIDTH 497 0
DWIDTH 29 0
BBX 0 0 0 0
BITMAP
ENDCHAR
STARTCHAR 02DD
ENCODING 733
SWIDTH 497 0
DWIDTH 29 0
BBX 0 0 0 0
BITMAP
ENDCHAR
STARTCHAR 037E
ENCODING 894
SWIDTH 977 0
DWIDTH 57 0
BBX 56 56 0 -10
BITMAP
0000003C000000
0000003C000000
0000003C000000
0000003C000000
0000003C000000
0000003C000000
0000003C000000
0000003C000000
0000003C000000
0000003C000000
0000003C000000
0000003C000000
0000003C000000
0000003C000000
0000003C000000
0000003C000000
0000003C000000
0000003C000000
0000003C000000
0000003C000000
0000003C000000
0000003C000000
0000003C000000
0000003C000000
0000003C000000
0000003C000000
FFFFFFFFFFFFFF
FFFFFFFFFFFFFF
FFFFFFFFFFFFFF
FFFFFFFFFFFFFF
0000003C000000
0000003C000000
0000003C000000
0000003C000000
0000003C000000
0000003C000000
0000003C000000
0000003C000000
0000003C000000
0000003C000000
0000003C000000
0000003C000000
0000003C000000
0000003C000000
0000003C000000
0000003C000000
0000003C000000
0000003C000000
0000003C000000
0000003C000000
0000003C000000
0000003C000000
0000003C000000
0000003C000000
0000003C000000
0000003C000000
ENDCHAR
STARTCHAR 2013
ENCODING 8211
SWIDTH 531 0
DWIDTH 31 0
BBX 0 0 0 0
BITMAP
ENDCHAR
STARTCHAR 2014
ENCODING 8212
SWIDTH 994 0
DWIDTH 58 0
BBX 0 0 0 0
BITMAP
ENDCHAR
STARTCHAR 2018
ENCODING 8216
SWIDTH 274 0
DWIDTH 16 0
BBX 0 0 0 0
BITMAP
ENDCHAR
STARTCHAR 2019
ENCODING 8217
SWIDTH 274 0
DWIDTH 16 0
BBX 0 0 0 0
BITMAP
ENDCHAR
STARTCHAR 201A
ENCODING 8218
SWIDTH 274 0
DWIDTH 16 0
BBX 0 0 0 0
BITMAP
ENDCHAR
STARTCHAR 201C
ENCODING 8220
SWIDTH 445 0
DWIDTH 26 0
BBX 0 0 0 0
BITMAP
ENDCHAR
STARTCHAR 201D
ENCODING 8221
SWIDTH 445 0
DWIDTH 26 0
BBX 0 0 0 0
BITMAP
ENDCHAR
STARTCHAR 201E
ENCODING 8222
SWIDTH 445 0
DWIDTH 26 0
BBX 0 0 0 0
BITMAP
ENDCHAR
STARTCHAR 2020
ENCODING 8224
SWIDTH 497 0
DWIDTH 29 0
BBX 0 0 0 0
BITMAP
ENDCHAR
STARTCHAR 2021
ENCODING 8225
SWIDTH 497 0
DWIDTH 29 0
BBX 0 0 0 0
BITMAP
ENDCHAR
STARTCHAR 2022
ENCODING 8226
SWIDTH 497 0
DWIDTH 29 0
BBX 0 0 0 0
BITMAP
ENDCHAR
STARTCHAR 2026
ENCODING 8230
SWIDTH 994 0
DWIDTH 58 0
BBX 0 0 0 0
BITMAP
ENDCHAR
STARTCHAR 2039
ENCODING 8249
SWIDTH 308 0
DWIDTH 18 0
BBX 0 0 0 0
BITMAP
ENDCHAR
STARTCHAR 203A
ENCODING 8250
SWIDTH 308 0
DWIDTH 18 0
BBX 0 0 0 0
BITMAP
ENDCHAR
STARTCHAR 2044
ENCODING 8260
SWIDTH 171 0
DWIDTH 10 0
BBX 0 0 0 0
BITMAP
ENDCHAR
STARTCHAR 20A3
ENCODING 8355
SWIDTH 497 0
DWIDTH 29 0
BBX 0 0 0 0
BITMAP
ENDCHAR
STARTCHAR 20A4
ENCODING 8356
SWIDTH 497 0
DWIDTH 29 0
BBX 0 0 0 0
BITMAP
ENDCHAR
STARTCHAR 20A7
ENCODING 8359
SWIDTH 977 0
DWIDTH 57 0
BBX 0 0 0 0
BITMAP
ENDCHAR
STARTCHAR 20AC
ENCODING 8364
SWIDTH 497 0
DWIDTH 29 0
BBX 0 0 0 0
BITMAP
ENDCHAR
STARTCHAR 2116
ENCODING 8470
SWIDTH 1097 0
DWIDTH 64 0
BBX 0 0 0 0
BITMAP
ENDCHAR
STARTCHAR 2122
ENCODING 8482
SWIDTH 720 0
DWIDTH 42 0
BBX 0 0 0 0
BITMAP
ENDCHAR
STARTCHAR 2202
ENCODING 8706
SWIDTH 497 0
DWIDTH 29 0
BBX 0 0 0 0
BITMAP
ENDCHAR
STARTCHAR 2206
ENCODING 8710
SWIDTH 531 0
DWIDTH 31 0
BBX 0 0 0 0
BITMAP
ENDCHAR
STARTCHAR 220F
ENCODING 8719
SWIDTH 737 0
DWIDTH 43 0
BBX 0 0 0 0
BITMAP
ENDCHAR
STARTCHAR 2211
ENCODING 8721
SWIDTH 582 0
DWIDTH 34 0
BBX 0 0 0 0
BITMAP
ENDCHAR
STARTCHAR 2212
ENCODING 8722
SWIDTH 497 0
DWIDTH 29 0
BBX 0 0 0 0
BITMAP
ENDCHAR
STARTCHAR 2215
ENCODING 8725
SWIDTH 171 0
DWIDTH 10 0
BBX 0 0 0 0
BITMAP
ENDCHAR
STARTCHAR 2219
ENCODING 8729
SWIDTH 240 0
DWIDTH 14 0
BBX 0 0 0 0
BITMAP
ENDCHAR
STARTCHAR 221A
ENCODING 8730
SWIDTH 497 0
DWIDTH 29 0
BBX 0 0 0 0
BITMAP
ENDCHAR
STARTCHAR 221E
ENCODING 8734
SWIDTH 497 0
DWIDTH 29 0
BBX 0 0 0 0
BITMAP
ENDCHAR
STARTCHAR 222B
ENCODING 8747
SWIDTH 325 0
DWIDTH 19 0
BBX 0 0 0 0
BITMAP
ENDCHAR
STARTCHAR 2248
ENCODING 8776
SWIDTH 497 0
DWIDTH 29 0
BBX 0 0 0 0
BITMAP
ENDCHAR
STARTCHAR 2264
ENCODING 8804
SWIDTH 497 0
DWIDTH 29 0
BBX 0 0 0 0
BITMAP
ENDCHAR
STARTCHAR 2265
ENCODING 8805
SWIDTH 497 0
DWIDTH 29 0
BBX 0 0 0 0
BITMAP
ENDCHAR
STARTCHAR F001
ENCODING 61441
SWIDTH 514 0
DWIDTH 30 0
BBX 0 0 0 0
BITMAP
ENDCHAR
STARTCHAR F002
ENCODING 61442
SWIDTH 531 0
DWIDTH 31 0
BBX 0 0 0 0
BITMAP
ENDCHAR
STARTCHAR FB01
ENCODING 64257
SWIDTH 514 0
DWIDTH 30 0
BBX 0 0 0 0
BITMAP
ENDCHAR
STARTCHAR FB02
ENCODING 64258
SWIDTH 531 0
DWIDTH 31 0
BBX 0 0 0 0
BITMAP
ENDCHAR
ENDFONT
